<svg xmlns="http://www.w3.org/2000/svg" width="281.221" height="297.437" viewBox="0 0 281.221 297.437">
  <defs>
    <style>
      .cls-1 {
        opacity: 0.644;
      }

      .cls-2, .cls-3 {
        fill: #3c3c3c;
      }

      .cls-2 {
        opacity: 0;
      }
    </style>
  </defs>
  <g id="_-" data-name="-" class="cls-1" transform="translate(0)">
    <g id="二维码" transform="translate(0)">
      <g id="Group">
        <g id="组_1312" data-name="组 1312">
          <rect id="Rectangle" class="cls-2" width="281.221" height="297.436"/>
          <path id="Path" class="cls-3" d="M32.588,32.727h16.28V49.945H32.588Z" transform="translate(33.343 37.303)"/>
          <path id="Shape" class="cls-3" d="M92.968,18.255H18.1V97.439H47.41V111.22H63.69V97.439H93V80.221h13.03V66.44H93l-.031-48.185ZM76.72,80.221H34.38V35.474H76.689V80.221ZM47.41,190.4H63.69v17.218H47.41ZM180.865,49.222h16.28V66.44h-16.28Zm-58.588,77.829v18.573h16.28V128.439h13.03V111.221h-13.03V97.44h-16.28Zm0,62.957v17.615h16.28v-31h13.03V159.406H122.278v30.6Zm16.28,17.615h13.03V221.4h-13.03ZM106,221.4V238.59h32.559V221.4Z" transform="translate(18.52 20.808)"/>
          <path id="Shape-2" data-name="Shape" class="cls-3" d="M144.811,176.624h-16.28v31H157.81V190.4h-13V176.624Zm13,61.966H203.4V221.4H174.09V207.623H157.81V238.59ZM203.4,128.439V111.221H174.09v17.218ZM187.119,190.4H203.4v17.218h-16.28ZM82.943,80.221h16.28V97.439H82.943Zm74.867,31V97.439H203.4V18.255H128.532V35.474H99.222V49.255h29.309V66.44H115.5V80.221h13.03V97.439h16.28v13.781Zm-13-75.747h42.308V80.221H144.811Zm0,110.151h13v13.781h-13Zm29.278,31H157.81V190.4h29.309v-31H203.4V145.624H174.089ZM82.943,49.222h16.28V66.44H82.943ZM40.634,128.439h13.03v17.185H40.634Zm42.308-17.218H53.664v17.218H69.913v17.185h13.03v-34.4Z" transform="translate(41.576 20.808)"/>
          <path id="Shape-3" data-name="Shape" class="cls-3" d="M92.968,148.931v-31H106V100.714H47.41V69.747H18.1V86.965H34.38v13.781H18.1v79.184H92.968V162.712H106V148.931ZM76.72,162.712H34.38V117.932H76.689v44.781ZM106,86.932h16.279v13.781H106Zm45.589-17.185h16.28V86.933h-16.28Zm29.278,0h16.28V86.933h-16.28Z" transform="translate(18.52 79.5)"/>
        </g>
      </g>
    </g>
  </g>
</svg>
