<svg xmlns="http://www.w3.org/2000/svg" xmlns:xlink="http://www.w3.org/1999/xlink" width="1920" height="1080" viewBox="0 0 1920 1080">
  <defs>
    <style>
      .cls-1, .cls-5, .cls-8 {
        fill: #fff;
      }

      .cls-2 {
        clip-path: url(#clip-path);
      }

      .cls-3 {
        opacity: 0.073;
      }

      .cls-10, .cls-3, .cls-7 {
        fill: url(#linear-gradient);
      }

      .cls-4 {
        opacity: 0.101;
      }

      .cls-10, .cls-5, .cls-6 {
        opacity: 0.6;
      }

      .cls-8, .cls-9 {
        opacity: 0.3;
      }

      .cls-11 {
        fill: url(#linear-gradient-6);
      }

      .cls-12 {
        fill: url(#linear-gradient-7);
      }
    </style>
    <clipPath id="clip-path">
      <rect id="矩形_4487" data-name="矩形 4487" class="cls-1" width="1920" height="1080"/>
    </clipPath>
    <linearGradient id="linear-gradient" x1="0.5" x2="0.5" y2="1" gradientUnits="objectBoundingBox">
      <stop offset="0" stop-color="#fff"/>
      <stop offset="1" stop-color="#fff" stop-opacity="0"/>
    </linearGradient>
    <linearGradient id="linear-gradient-6" x1="0.5" x2="0.5" y2="1" gradientUnits="objectBoundingBox">
      <stop offset="0" stop-color="#fff"/>
      <stop offset="1" stop-color="#fff" stop-opacity="0.063"/>
    </linearGradient>
    <linearGradient id="linear-gradient-7" x1="0.5" x2="0.5" y2="1" gradientUnits="objectBoundingBox">
      <stop offset="0" stop-color="#fff"/>
      <stop offset="1" stop-color="#fff" stop-opacity="0.192"/>
    </linearGradient>
  </defs>
  <g id="bg" class="cls-2">
    <g id="组_428" data-name="组 428">
      <path id="路径_435" data-name="路径 435" class="cls-3" d="M1834.344,0,0,1512H1834.344Z" transform="translate(303 -167)"/>
      <path id="路径_471" data-name="路径 471" class="cls-3" d="M1834.344,0,0,1512H1834.344Z" transform="translate(83 -179)"/>
      <path id="路径_472" data-name="路径 472" class="cls-3" d="M1834.344,0,0,1512H1834.344Z" transform="translate(120 -266)"/>
    </g>
    <g id="组_1407" data-name="组 1407" class="cls-4" transform="translate(1858.891 1908.148) rotate(180)">
      <g id="组_1334" data-name="组 1334" transform="translate(-81.309 79.219)">
        <path id="路径_694" data-name="路径 694" class="cls-5" d="M49.94,46.506l43.747,75.782L49.94,198.071h-87.5l-43.747-75.782,43.747-75.782Z" transform="translate(81.309 86.646)"/>
        <path id="路径_695" data-name="路径 695" class="cls-5" d="M59.874,277.322,88.26,326.491,59.874,375.66H3.1l-28.386-49.169L3.1,277.322Z" transform="translate(214.286 634.51)"/>
        <g id="组_1314" data-name="组 1314" class="cls-6" transform="translate(221.305)">
          <path id="路径_696" data-name="路径 696" class="cls-1" d="M188.568,12.9l65.839,114.034L188.568,240.979H56.9L-8.943,126.931,56.9,12.9H188.568m3.384-5.86H53.513L-15.71,126.931,53.513,246.839H191.951l69.223-119.908L191.951,7.037Z" transform="translate(15.71 -7.037)"/>
        </g>
        <g id="组_1315" data-name="组 1315" class="cls-6" transform="translate(191.678 669.941)">
          <path id="路径_697" data-name="路径 697" class="cls-1" d="M52.237,207.824l24.732,42.834L52.237,293.5H2.78l-24.728-42.841L2.78,207.824H52.237m1.272-2.2h-52l-26,45.037,26,45.041h52l26-45.041-26-45.037Z" transform="translate(24.492 -205.621)"/>
        </g>
        <path id="路径_698" data-name="路径 698" class="cls-1" d="M243.582,217.667l22.95,39.756-22.95,39.756H197.674l-22.95-39.756,22.95-39.756Z" transform="translate(689.028 492.913)"/>
        <path id="路径_699" data-name="路径 699" class="cls-7" d="M247.828,286.517l55.824,96.675-55.824,96.7H136.187l-55.825-96.7,55.825-96.675Z" transform="translate(465.052 656.336)"/>
        <g id="组_1316" data-name="组 1316" transform="translate(264.841 1047.679)">
          <path id="路径_700" data-name="路径 700" class="cls-1" d="M116.86,321.021l38.567,66.8-38.567,66.8H39.729l-38.57-66.8,38.57-66.8h77.13m1.98-3.431H37.746L-2.8,387.825l40.551,70.238H118.84l40.551-70.238L118.84,317.59Z" transform="translate(2.805 -317.59)"/>
        </g>
        <g id="组_1317" data-name="组 1317" transform="translate(83.841 317.114)">
          <path id="路径_701" data-name="路径 701" class="cls-1" d="M26.186,103.408l26.638,46.137L26.186,195.682H-27.083l-26.638-46.137,26.638-46.137H26.186m1.37-2.372H-28.453l-28,48.509,28,48.509H27.556l28.008-48.509L27.556,101.036Z" transform="translate(56.457 -101.036)"/>
        </g>
        <path id="路径_702" data-name="路径 702" class="cls-1" d="M193.7,250.626l22.549,39.063L193.7,328.743H148.594l-22.548-39.055,22.548-39.063Z" transform="translate(573.487 571.143)"/>
        <path id="路径_703" data-name="路径 703" class="cls-1" d="M237.282,53.974l70.09,121.413L237.282,296.8H97.093L27,175.387,97.093,53.974Z" transform="translate(338.395 104.372)"/>
        <g id="组_1318" data-name="组 1318" transform="translate(186.213 353.114)">
          <path id="路径_704" data-name="路径 704" class="cls-1" d="M169.243,117.311,232.19,226.362,169.243,335.4H43.337L-19.641,226.362,43.337,117.311H169.243m3.235-5.6H40.1L-26.112,226.362,40.1,341H172.478l66.183-114.641L172.478,111.707Z" transform="translate(26.112 -111.707)"/>
        </g>
        <g id="组_1319" data-name="组 1319" transform="translate(20.478 905.941)">
          <path id="路径_705" data-name="路径 705" class="cls-1" d="M44.085,279l38.452,66.6L44.085,412.21H-32.823L-71.289,345.6-32.823,279H44.085m1.977-3.421H-34.8L-75.239,345.6-34.8,415.631H46.062L86.488,345.6,46.062,275.576Z" transform="translate(75.239 -275.576)"/>
        </g>
        <g id="组_1320" data-name="组 1320" transform="translate(500.975 492.922)">
          <path id="路径_706" data-name="路径 706" class="cls-1" d="M126.727,154.859l19.182,33.223-19.182,33.23H88.346L69.16,188.083l19.182-33.223h38.385m.985-1.71H87.357L67.19,188.083l20.167,34.94h40.355l20.171-34.94-20.171-34.934Z" transform="translate(-67.19 -153.149)"/>
        </g>
        <g id="组_1321" data-name="组 1321" transform="translate(101.711 87.933)">
          <path id="路径_707" data-name="路径 707" class="cls-1" d="M121.17,38.044l55.546,96.181-55.546,96.2H10.094l-55.546-96.2L10.094,38.044H121.17m2.854-4.942H7.24l-58.4,101.123,58.4,101.14H124.024l58.4-101.14L124.024,33.1Z" transform="translate(51.16 -33.102)"/>
        </g>
        <path id="路径_708" data-name="路径 708" class="cls-8" d="M121.722,297.288l23.016,39.873-23.016,39.876H75.684L52.66,337.161l23.023-39.873Z" transform="translate(399.298 681.902)"/>
        <path id="路径_709" data-name="路径 709" class="cls-8" d="M148.09,343.844l26.752,46.337L148.09,436.523h-53.5L67.834,390.181l26.752-46.337Z" transform="translate(435.315 792.406)"/>
        <g id="组_1322" data-name="组 1322" class="cls-9" transform="translate(799.673 509.105)">
          <path id="路径_710" data-name="路径 710" class="cls-1" d="M219.194,159.768l20.454,35.426-20.454,35.429H178.286l-20.454-35.429,20.454-35.426h40.908m1.053-1.822h-43.01L155.73,195.194l21.507,37.251h43.01l21.5-37.251-21.5-37.248Z" transform="translate(-155.73 -157.946)"/>
        </g>
        <g id="组_1323" data-name="组 1323" class="cls-9" transform="translate(89.583 520.66)">
          <path id="路径_711" data-name="路径 711" class="cls-1" d="M20.732,163.537,45.059,205.68,20.732,247.819H-27.928L-52.255,205.68l24.327-42.143H20.732m1.248-2.166H-29.18L-54.755,205.68l25.575,44.305H21.981L47.559,205.68,21.981,161.371Z" transform="translate(54.755 -161.371)"/>
        </g>
        <g id="组_1324" data-name="组 1324" class="cls-6" transform="translate(96.731 1112.894)">
          <path id="路径_712" data-name="路径 712" class="cls-1" d="M9.327,337.36l20.481,35.477L9.327,408.31H-31.635L-52.13,372.836l20.495-35.477H9.327m.256-.439H-31.888l-20.748,35.915,20.748,35.912H9.583l20.731-35.912L9.583,336.921Z" transform="translate(52.636 -336.921)"/>
        </g>
        <g id="组_1325" data-name="组 1325" class="cls-6" transform="translate(225.559 186.644)">
          <path id="路径_713" data-name="路径 713" class="cls-1" d="M153.343,63.553l55.475,96.077-55.475,96.077H42.413l-55.489-96.077L42.413,63.553h110.93m.688-1.191H41.728l-56.177,97.267,56.177,97.264h112.3l56.16-97.264-56.16-97.267Z" transform="translate(14.449 -62.362)"/>
        </g>
        <g id="组_1326" data-name="组 1326" transform="translate(744.778 1071.669)">
          <path id="路径_714" data-name="路径 714" class="cls-1" d="M237.417,325.4,269.8,381.475l-32.387,56.1H172.644l-32.386-56.1L172.644,325.4h64.773m.4-.7H172.243l-32.785,56.774,32.785,56.794h65.576L270.6,381.475,237.818,324.7Z" transform="translate(-139.458 -324.701)"/>
        </g>
        <g id="组_1327" data-name="组 1327" transform="translate(573.319 330.909)">
          <path id="路径_715" data-name="路径 715" class="cls-1" d="M208.528,105.975l39.636,68.642-39.636,68.656H129.262L89.616,174.618l39.646-68.642h79.266m.489-.85H128.77L88.634,174.618l40.136,69.506h80.248l40.129-69.506-40.129-69.493Z" transform="translate(-88.634 -105.125)"/>
        </g>
        <g id="组_1328" data-name="组 1328" transform="translate(40.237 6.137)">
          <path id="路径_716" data-name="路径 716" class="cls-1" d="M74.144,9.871,121.6,92.059,74.144,174.246h-94.9L-68.208,92.059-20.755,9.871h94.9m.587-1.015H-21.345l-48.037,83.2,48.037,83.2H74.731l48.04-83.2-48.04-83.2Z" transform="translate(69.382 -8.856)"/>
        </g>
        <g id="组_1329" data-name="组 1329" transform="translate(843.085 907.442)">
          <path id="路径_717" data-name="路径 717" class="cls-1" d="M246.376,276.574l25.714,44.538-25.714,44.538H194.952l-25.717-44.538,25.717-44.538h51.424m.317-.553H194.635L168.6,321.112,194.635,366.2h52.058l26.031-45.088-26.031-45.091Z" transform="translate(-168.598 -276.021)"/>
        </g>
        <g id="组_1330" data-name="组 1330" transform="translate(57.166 749.747)">
          <path id="路径_718" data-name="路径 718" class="cls-1" d="M5.712,229.773,28.885,269.9,5.712,310.024H-40.624L-63.79,269.9l23.166-40.122H5.712m.283-.5H-40.911L-64.364,269.9l23.453,40.625H6L29.459,269.9,6,229.277Z" transform="translate(64.364 -229.277)"/>
        </g>
        <g id="组_1331" data-name="组 1331" transform="translate(457.102 686.89)">
          <path id="路径_719" data-name="路径 719" class="cls-1" d="M238.282,211.947l60.887,105.411L238.282,422.787H116.556L55.693,317.358l60.863-105.411H238.282m.752-1.3H115.8L54.185,317.358,115.8,424.089H239.034l61.639-106.73L239.034,210.645Z" transform="translate(-54.185 -210.645)"/>
        </g>
        <g id="组_1332" data-name="组 1332" class="cls-9" transform="translate(264.25 511.308)">
          <path id="路径_720" data-name="路径 720" class="cls-1" d="M227.386,160.232l76.162,131.894L227.386,424.064H75.065L-1.1,292.126,75.065,160.232H227.386m.945-1.633H74.123L-2.98,292.126,74.123,425.7H228.33l77.1-133.571L228.33,158.6Z" transform="translate(2.98 -158.599)"/>
        </g>
        <g id="组_1333" data-name="组 1333" class="cls-9" transform="translate(658.961 618.798)">
          <path id="路径_721" data-name="路径 721" class="cls-1" d="M179.967,190.93l21.8,37.747-21.8,37.764h-43.6l-21.807-37.764,21.807-37.747h43.6m.27-.469H136.093L114.02,228.677l22.073,38.23h44.143l22.067-38.23-22.067-38.216Z" transform="translate(-114.02 -190.461)"/>
        </g>
      </g>
      <g id="组_1355" data-name="组 1355" transform="translate(924.331 41.561)">
        <path id="路径_722" data-name="路径 722" class="cls-10" d="M491.9,427.323,448.157,351.54,491.9,275.758h87.5l43.747,75.783-43.747,75.782Z" transform="translate(332.406 668.454)"/>
        <path id="路径_723" data-name="路径 723" class="cls-5" d="M438.735,159.057l-28.386-49.169,28.386-49.169h56.774l28.386,49.169-28.386,49.169Z" transform="translate(242.665 158.04)"/>
        <g id="组_1335" data-name="组 1335" class="cls-6" transform="translate(457.372 989.126)">
          <path id="路径_724" data-name="路径 724" class="cls-11" d="M556.635,294.931l65.839,114.051L556.635,523.016H424.963L359.124,408.982l65.839-114.051H556.635m3.384-5.86H421.58L352.357,408.982,421.58,528.876H560.018l69.223-119.894L560.018,289.071Z" transform="translate(-352.357 -289.071)"/>
        </g>
        <g id="组_1336" data-name="组 1336" class="cls-6" transform="translate(659.879 468.911)">
          <path id="路径_725" data-name="路径 725" class="cls-1" d="M489.113,137.069l24.732,42.838-24.732,42.838H439.656l-24.728-42.838,24.728-42.838h49.457m1.272-2.2h-52l-26,45.037,26,45.037h52l26-45.037-26-45.037Z" transform="translate(-412.384 -134.869)"/>
        </g>
        <path id="路径_726" data-name="路径 726" class="cls-1" d="M239.733,205.466l-22.95-39.756,22.95-39.755H285.64l22.95,39.755-22.95,39.756Z" transform="translate(-216.783 312.883)"/>
        <path id="路径_727" data-name="路径 727" class="cls-1" d="M327.994,216.726,272.17,120.051l55.824-96.7H439.636l55.824,96.7-55.824,96.675Z" transform="translate(-85.315 69.351)"/>
        <g id="组_1337" data-name="组 1337" transform="translate(528.521 40.778)">
          <path id="路径_728" data-name="路径 728" class="cls-1" d="M493.112,11.393l38.567,66.8L493.112,145H415.981l-38.57-66.8,38.57-66.8h77.131m1.98-3.431H414L373.447,78.2,414,148.435h81.094L535.643,78.2,495.092,7.962Z" transform="translate(-373.447 -7.962)"/>
        </g>
        <g id="组_1338" data-name="组 1338" transform="translate(759.7 814.799)">
          <path id="路径_729" data-name="路径 729" class="cls-1" d="M524.619,239.769l26.638,46.137-26.638,46.137H471.35l-26.638-46.137,26.638-46.137h53.269m1.366-2.372H469.98l-28.007,48.509,28.007,48.509h56.005l28.008-48.509L525.986,237.4Z" transform="translate(-441.973 -237.397)"/>
        </g>
        <path id="路径_730" data-name="路径 730" class="cls-1" d="M288.485,171.527l-22.549-39.063,22.549-39.055H333.59l22.548,39.055L333.59,171.527Z" transform="translate(-100.113 235.633)"/>
        <path id="路径_731" data-name="路径 731" class="cls-12" d="M378.7,484.063,308.611,362.651,378.7,241.238H518.891l70.091,121.412L518.891,484.063Z" transform="translate(1.181 586.519)"/>
        <g id="组_1339" data-name="组 1339" transform="translate(504.572 646.517)">
          <path id="路径_732" data-name="路径 732" class="cls-1" d="M561.672,193.118,624.65,302.156,561.672,411.208H435.77L372.818,302.156,435.77,193.118h125.9m3.235-5.6H432.534L366.348,302.156l66.186,114.655H564.907l66.214-114.655L564.907,187.515Z" transform="translate(-366.348 -187.515)"/>
        </g>
        <g id="组_1340" data-name="组 1340" transform="translate(773.353 182.931)">
          <path id="路径_733" data-name="路径 733" class="cls-1" d="M565.334,53.523,603.8,120.131l-38.462,66.6H488.423l-38.452-66.6,38.452-66.608h76.911m1.974-3.424H486.446L446.02,120.131l40.426,70.026h80.862l40.443-70.026L567.307,50.1Z" transform="translate(-446.02 -50.099)"/>
        </g>
        <g id="组_1341" data-name="组 1341" transform="translate(373.893 666.134)">
          <path id="路径_734" data-name="路径 734" class="cls-1" d="M387.149,195.037l19.182,33.233-19.182,33.223H348.764L329.582,228.27l19.186-33.233h38.381m.985-1.707H347.779l-20.167,34.94,20.167,34.93h40.355L408.3,228.27l-20.171-34.94Z" transform="translate(-327.612 -193.33)"/>
        </g>
        <g id="组_1342" data-name="组 1342" transform="translate(620.263 938.731)">
          <path id="路径_735" data-name="路径 735" class="cls-1" d="M572.974,279.079l55.546,96.195-55.546,96.184H461.9l-55.546-96.184L461.9,279.079H572.974m2.854-4.946H459.041l-58.4,101.14,58.4,101.127H575.828l58.4-101.127-58.4-101.14Z" transform="translate(-400.641 -274.133)"/>
        </g>
        <path id="路径_736" data-name="路径 736" class="cls-8" d="M361.782,126.012,338.767,86.139l23.016-39.876h46.038l23.023,39.876-23.023,39.873Z" transform="translate(72.757 123.727)"/>
        <path id="路径_737" data-name="路径 737" class="cls-8" d="M345.919,88.553,319.167,42.216,345.919-4.126h53.5l26.752,46.342L399.422,88.553Z" transform="translate(26.236 4.126)"/>
        <g id="组_1343" data-name="组 1343" class="cls-9" transform="translate(69.865 645.326)">
          <path id="路径_738" data-name="路径 738" class="cls-1" d="M300.956,188.98,321.41,224.41l-20.454,35.429H260.048L239.594,224.41l20.454-35.429h40.908m1.053-1.818H259L237.492,224.41,259,261.661h43.01l21.5-37.251-21.5-37.248Z" transform="translate(-237.492 -187.162)"/>
        </g>
        <g id="组_1344" data-name="组 1344" class="cls-9" transform="translate(763.661 619.653)">
          <path id="路径_739" data-name="路径 739" class="cls-1" d="M518.635,181.718l24.33,42.14L518.635,266H469.974L445.65,223.857l24.324-42.14h48.661m1.251-2.166H468.725l-25.578,44.305,25.578,44.309h51.161l25.579-44.309-25.579-44.305Z" transform="translate(-443.147 -179.552)"/>
        </g>
        <g id="组_1345" data-name="组 1345" class="cls-6" transform="translate(775.877 44.206)">
          <path id="路径_740" data-name="路径 740" class="cls-1" d="M508.717,9.417l20.491,35.477L508.717,80.367H467.755L447.277,44.893,467.755,9.417h40.962m.253-.439H467.5L446.768,44.893,467.5,80.805H508.97l20.747-35.912L508.97,8.978Z" transform="translate(-446.768 -8.978)"/>
        </g>
        <g id="组_1346" data-name="组 1346" class="cls-6" transform="translate(505.358 847.752)">
          <path id="路径_741" data-name="路径 741" class="cls-1" d="M534.363,248.352l55.489,96.08-55.489,96.077H423.429l-55.475-96.077,55.475-96.08H534.363m.685-1.188H422.741l-56.16,97.267,56.16,97.264H535.048l56.174-97.264-56.174-97.267Z" transform="translate(-366.581 -247.165)"/>
        </g>
        <g id="组_1347" data-name="组 1347" transform="translate(79.638 43.693)">
          <path id="路径_742" data-name="路径 742" class="cls-1" d="M338.348,9.521l32.383,56.1L338.348,121.7H273.572L241.188,65.62l32.383-56.1h64.776m.4-.695H273.174L240.389,65.62l32.785,56.774h65.573L371.534,65.62,338.746,8.826Z" transform="translate(-240.389 -8.826)"/>
        </g>
        <g id="组_1348" data-name="组 1348" transform="translate(221.73 759.02)">
          <path id="路径_743" data-name="路径 743" class="cls-1" d="M402.392,221.713l39.646,68.656-39.646,68.646H323.126l-39.64-68.646,39.64-68.656h79.266m.489-.85H322.634l-40.126,69.506,40.126,69.493h80.248l40.136-69.493-40.136-69.506Z" transform="translate(-282.508 -220.863)"/>
        </g>
        <g id="组_1349" data-name="组 1349" transform="translate(723.171 1056.385)">
          <path id="路径_744" data-name="路径 744" class="cls-1" d="M574.671,310.027l47.45,82.188L574.671,474.4h-94.9l-47.449-82.184,47.449-82.187h94.9m.587-1.019H479.181l-48.036,83.206,48.036,83.2h96.077l48.037-83.2-48.037-83.206Z" transform="translate(-431.145 -309.008)"/>
        </g>
        <g id="组_1350" data-name="组 1350" transform="translate(8.347 231.305)">
          <path id="路径_745" data-name="路径 745" class="cls-1" d="M297.028,64.988l25.717,44.542-25.717,44.538H245.6l-25.71-44.538L245.6,64.988h51.424m.317-.55H245.288l-26.031,45.091,26.031,45.088h52.058l26.037-45.088L297.345,64.438Z" transform="translate(-219.257 -64.438)"/>
        </g>
        <g id="组_1351" data-name="组 1351" transform="translate(804.569 397.941)">
          <path id="路径_746" data-name="路径 746" class="cls-1" d="M525.356,114.328l23.166,40.125-23.166,40.122H479.023l-23.176-40.122,23.176-40.125h46.333m.287-.5H478.736l-23.463,40.621,23.463,40.618h46.906L549.1,154.453l-23.453-40.621Z" transform="translate(-455.273 -113.832)"/>
        </g>
        <g id="组_1352" data-name="组 1352" transform="translate(251.968 328.593)">
          <path id="路径_747" data-name="路径 747" class="cls-1" d="M475.588,94.582l60.866,105.425L475.588,305.418H353.866l-60.89-105.411,60.89-105.425H475.588m.752-1.306H353.113l-61.642,106.73,61.642,106.717H476.34l61.619-106.717L476.34,93.276Z" transform="translate(-291.471 -93.276)"/>
        </g>
        <g id="组_1353" data-name="组 1353" class="cls-9" transform="translate(382.897 450.525)">
          <path id="路径_748" data-name="路径 748" class="cls-1" d="M560.647,131.048,636.809,262.99,560.647,394.88H408.326L332.167,262.99l76.159-131.941H560.647m.944-1.629H407.384l-77.1,133.571,77.1,133.523H561.591l77.1-133.523-77.1-133.571Z" transform="translate(-330.281 -129.419)"/>
        </g>
        <g id="组_1354" data-name="组 1354" class="cls-9" transform="translate(208.317 533.684)">
          <path id="路径_749" data-name="路径 749" class="cls-1" d="M344.469,154.535,366.276,192.3l-21.807,37.75h-43.6l-21.8-37.75,21.8-37.764h43.6m.27-.466H300.6L278.532,192.3,300.6,230.515h44.14L366.815,192.3l-22.077-38.23Z" transform="translate(-278.532 -154.069)"/>
        </g>
      </g>
      <g id="组_1406" data-name="组 1406" transform="translate(169.44 -23.373)">
        <g id="组_1405" data-name="组 1405">
          <g id="组_1383" data-name="组 1383" transform="translate(0)">
            <g id="组_1356" data-name="组 1356" transform="translate(1253.276 298.123)">
              <path id="路径_750" data-name="路径 750" class="cls-1" d="M505.12,255.747H420.3l-54.824-94.962L420.3,65.824H505.12V65h-85.3l-55.184,95.583-.119.207L419.7,256.368l.12.207h85.3Z" transform="translate(-364.514 -64.996)"/>
            </g>
            <g id="组_1357" data-name="组 1357" transform="translate(1253.276 488.874)">
              <path id="路径_751" data-name="路径 751" class="cls-1" d="M505.12,312.289H420.3l-54.824-94.961L420.3,122.367H505.12v-.828h-85.3l-55.184,95.582-.119.207L419.7,312.911l.12.207h85.3Z" transform="translate(-364.514 -121.539)"/>
            </g>
            <g id="组_1358" data-name="组 1358" transform="translate(1253.276 679.625)">
              <path id="路径_752" data-name="路径 752" class="cls-1" d="M505.12,368.832H420.3l-54.824-94.961L420.3,178.909H505.12v-.828h-85.3l-55.184,95.583-.119.207L419.7,369.453l.12.207h85.3Z" transform="translate(-364.514 -178.081)"/>
            </g>
            <g id="组_1359" data-name="组 1359" transform="translate(1253.276 870.376)">
              <path id="路径_753" data-name="路径 753" class="cls-1" d="M505.12,425.371H420.3l-54.824-94.958L420.3,235.451H505.12v-.828h-85.3l-55.184,95.583-.119.207L419.7,425.992l.12.207h85.3Z" transform="translate(-364.514 -234.623)"/>
            </g>
            <g id="组_1360" data-name="组 1360" transform="translate(1278.4 1061.123)">
              <path id="路径_754" data-name="路径 754" class="cls-1" d="M487.443,291.165h-85.3l-30.18,52.273h.957l29.7-51.445h84.824Z" transform="translate(-371.961 -291.165)"/>
            </g>
            <g id="组_1361" data-name="组 1361" transform="translate(1088.081 393.497)">
              <path id="路径_755" data-name="路径 755" class="cls-1" d="M315.547,189.057l.118-.206L370.85,93.267H481.46l.118.209,55.185,95.581-.121.209L481.46,284.847H370.85l-.118-.206ZM371.329,94.1l-54.824,94.96,54.824,94.963H480.981l54.824-94.963L480.981,94.1Z" transform="translate(-315.547 -93.267)"/>
            </g>
            <g id="组_1362" data-name="组 1362" transform="translate(1088.081 584.25)">
              <path id="路径_756" data-name="路径 756" class="cls-1" d="M315.547,245.6l.118-.209L370.85,149.81H481.46l.118.206L536.763,245.6l-.121.206L481.46,341.39H370.85l-.118-.209Zm55.782-94.963L316.505,245.6l54.824,94.96H480.981l54.824-94.96-54.824-94.963Z" transform="translate(-315.547 -149.81)"/>
            </g>
            <g id="组_1363" data-name="组 1363" transform="translate(1088.081 775)">
              <path id="路径_757" data-name="路径 757" class="cls-1" d="M315.547,302.142l.118-.206,55.185-95.584H481.46l.118.206,55.185,95.584-.121.206L481.46,397.932H370.85l-.118-.206Zm55.782-94.96-54.824,94.96,54.824,94.96H480.981l54.824-94.96-54.824-94.96Z" transform="translate(-315.547 -206.352)"/>
            </g>
            <g id="组_1364" data-name="组 1364" transform="translate(1088.081 965.751)">
              <path id="路径_758" data-name="路径 758" class="cls-1" d="M346.445,410.54,316.5,358.681l54.826-94.958H480.981l54.825,94.958L505.865,410.54h.958l29.821-51.652.119-.207L481.58,263.1l-.119-.207H370.85l-55.184,95.579-.12.207,29.941,51.859Z" transform="translate(-315.547 -262.894)"/>
            </g>
            <g id="组_1365" data-name="组 1365" transform="translate(922.886 679.625)">
              <path id="路径_759" data-name="路径 759" class="cls-1" d="M266.58,273.871l.118-.209,55.185-95.581h110.61l.118.206L487.8,273.871l-.121.206-55.182,95.584H321.883l-.121-.209Zm55.782-94.963-54.824,94.963,54.824,94.96H432.014l54.824-94.96-54.824-94.963Z" transform="translate(-266.58 -178.081)"/>
            </g>
            <g id="组_1366" data-name="组 1366" transform="translate(922.886 870.375)">
              <path id="路径_760" data-name="路径 760" class="cls-1" d="M266.58,330.413l.118-.206,55.185-95.584h110.61l.118.209L487.8,330.413l-.121.209L432.493,426.2H321.883l-.121-.206Zm55.782-94.96-54.824,94.96,54.824,94.96H432.014l54.824-94.96-54.824-94.96Z" transform="translate(-266.58 -234.623)"/>
            </g>
            <g id="组_1367" data-name="组 1367" transform="translate(948.01 1061.123)">
              <path id="路径_761" data-name="路径 761" class="cls-1" d="M274.984,343.438l29.7-51.445H414.337l29.7,51.445H445l-30.06-52.066-.119-.207H304.207l-30.18,52.273Z" transform="translate(-274.027 -291.165)"/>
            </g>
            <g id="组_1368" data-name="组 1368" transform="translate(757.692 775)">
              <path id="路径_762" data-name="路径 762" class="cls-1" d="M217.613,302.142l.118-.206,55.185-95.584h110.61l.118.206,55.185,95.584-.121.206-55.182,95.584H272.916l-.121-.206Zm55.782-94.96-54.824,94.96L273.4,397.1H383.047l54.824-94.96-54.824-94.96Z" transform="translate(-217.613 -206.352)"/>
            </g>
            <g id="组_1369" data-name="组 1369" transform="translate(757.691 965.751)">
              <path id="路径_763" data-name="路径 763" class="cls-1" d="M248.511,410.54l-29.94-51.859L273.4,263.723H383.047l54.824,94.958-29.94,51.859h.957l29.821-51.652.119-.207L383.645,263.1l-.119-.207H272.916l-55.184,95.579-.119.207,29.941,51.859Z" transform="translate(-217.613 -262.894)"/>
            </g>
            <g id="组_1370" data-name="组 1370" transform="translate(592.497 870.375)">
              <path id="路径_764" data-name="路径 764" class="cls-1" d="M168.646,330.413l.118-.206,55.185-95.584h110.61l.118.209,55.185,95.581-.121.209L334.559,426.2H223.949l-.121-.206Zm55.782-94.96L169.6,330.413l54.824,94.96H334.08l54.824-94.96-54.824-94.96Z" transform="translate(-168.646 -234.623)"/>
            </g>
            <g id="组_1371" data-name="组 1371" transform="translate(617.62 1061.123)">
              <path id="路径_765" data-name="路径 765" class="cls-1" d="M177.05,343.438l29.7-51.445H316.4l29.7,51.445h.958L317,291.372l-.12-.207H206.273l-30.18,52.273Z" transform="translate(-176.093 -291.165)"/>
            </g>
            <g id="组_1372" data-name="组 1372" transform="translate(475.201)">
              <path id="路径_766" data-name="路径 766" class="cls-1" d="M258.338-23.373l-6.926,12H141.761l-6.927-12h-.957l7.285,12.618.12.207H251.891l7.4-12.825Z" transform="translate(-133.877 23.373)"/>
            </g>
            <g id="组_1373" data-name="组 1373" transform="translate(427.302 11.998)">
              <path id="路径_767" data-name="路径 767" class="cls-1" d="M119.679,75.973l.118-.209,55.185-95.581h110.61l.118.206L340.9,75.973l-.121.206-55.182,95.581H174.982l-.121-.206ZM175.461-18.99,120.637,75.973l54.824,94.96H285.113l54.824-94.96L285.113-18.99Z" transform="translate(-119.679 19.817)"/>
            </g>
            <g id="组_1374" data-name="组 1374" transform="translate(262.107)">
              <path id="路径_768" data-name="路径 768" class="cls-1" d="M283.806-23.373l7.165,12.411L236.146,84H126.495L71.67-10.963l7.166-12.411h-.958l-7.045,12.2-.12.207L125.9,84.62l.12.207H236.625l55.184-95.583.119-.207-7.165-12.411Z" transform="translate(-70.712 23.373)"/>
            </g>
            <g id="组_1375" data-name="组 1375" transform="translate(144.812)">
              <path id="路径_769" data-name="路径 769" class="cls-1" d="M160.4-23.373l-6.927,12H43.826l-6.926-12h-.957l7.285,12.618.119.207h110.61l7.4-12.825Z" transform="translate(-35.943 23.373)"/>
            </g>
            <g id="组_1376" data-name="组 1376" transform="translate(96.913 11.998)">
              <path id="路径_770" data-name="路径 770" class="cls-1" d="M21.745,75.973l.118-.209L77.048-19.817h110.61l.118.206,55.185,95.584-.121.206-55.182,95.581H77.048l-.121-.206ZM77.527-18.99,22.7,75.973l54.824,94.96H187.179L242,75.973,187.179-18.99Z" transform="translate(-21.745 19.817)"/>
            </g>
            <g id="组_1377" data-name="组 1377" transform="translate(96.913 775)">
              <path id="路径_771" data-name="路径 771" class="cls-1" d="M21.745,302.142l.118-.206,55.185-95.584h110.61l.118.206,55.185,95.584-.121.206-55.182,95.584H77.048l-.121-.206Zm55.782-94.96L22.7,302.142,77.527,397.1H187.179L242,302.142l-54.824-94.96Z" transform="translate(-21.745 -206.352)"/>
            </g>
            <g id="组_1378" data-name="组 1378" transform="translate(96.912 965.751)">
              <path id="路径_772" data-name="路径 772" class="cls-1" d="M52.643,410.54,22.7,358.681l54.825-94.958H187.179L242,358.681,212.064,410.54h.958l29.821-51.652.12-.207L187.778,263.1l-.119-.207H77.049L21.865,358.474l-.12.207L51.685,410.54Z" transform="translate(-21.745 -262.894)"/>
            </g>
            <g id="组_1379" data-name="组 1379">
              <path id="路径_773" data-name="路径 773" class="cls-1" d="M137.829-23.373l7.166,12.411L90.169,84H-6.982v.828h97.63l55.185-95.583.119-.207-7.166-12.411Z" transform="translate(6.982 23.373)"/>
            </g>
            <g id="组_1380" data-name="组 1380" transform="translate(0 107.372)">
              <path id="路径_774" data-name="路径 774" class="cls-1" d="M90.768,8.661l-.12-.207H-6.982v.828H90.169l54.825,94.962L90.169,199.2H-6.982v.828h97.63l55.185-95.582.119-.207Z" transform="translate(6.982 -8.454)"/>
            </g>
            <g id="组_1381" data-name="组 1381" transform="translate(0 870.376)">
              <path id="路径_775" data-name="路径 775" class="cls-1" d="M90.768,234.83l-.12-.207H-6.982v.828H90.169l54.825,94.962L90.169,425.371H-6.982v.829h97.63l55.185-95.579.119-.207Z" transform="translate(6.982 -234.623)"/>
            </g>
            <g id="组_1382" data-name="组 1382" transform="translate(0 1061.123)">
              <path id="路径_776" data-name="路径 776" class="cls-1" d="M90.768,291.372l-.12-.207H-6.982v.829H90.169l29.7,51.445h.958Z" transform="translate(6.982 -291.165)"/>
            </g>
          </g>
          <g id="组_1403" data-name="组 1403" transform="translate(0)">
            <g id="组_1384" data-name="组 1384" transform="translate(1266.886 621.915)">
              <path id="路径_777" data-name="路径 777" class="cls-1" d="M495.544,409.575H444.051L373.532,287.434l70.519-122.141h51.493v-4.318H441.558l-73.01,126.459,73.01,126.459h53.986Z" transform="translate(-368.548 -160.975)"/>
            </g>
            <g id="组_1385" data-name="组 1385" transform="translate(1266.886 870.516)">
              <path id="路径_778" data-name="路径 778" class="cls-1" d="M495.544,238.983v-4.318H441.558l-73.01,126.459,67.217,116.422h4.985L373.532,361.124l70.519-122.141Z" transform="translate(-368.548 -234.665)"/>
            </g>
            <g id="组_1386" data-name="组 1386" transform="translate(1051.592 746.216)">
              <path id="路径_779" data-name="路径 779" class="cls-1" d="M304.731,324.279,377.742,197.82H523.761l73.011,126.459L523.761,450.738H377.742Zm75.5-122.141L309.714,324.279,380.232,446.42h141.04L591.79,324.279,521.272,202.138Z" transform="translate(-304.731 -197.82)"/>
            </g>
            <g id="组_1387" data-name="组 1387" transform="translate(1056.139 994.816)">
              <path id="路径_780" data-name="路径 780" class="cls-1" d="M311.062,390.091l65.972-114.263H518.072l65.971,114.263h4.985L520.564,271.51H374.542L306.079,390.091Z" transform="translate(-306.079 -271.51)"/>
            </g>
            <g id="组_1388" data-name="组 1388" transform="translate(691.283)">
              <path id="路径_781" data-name="路径 781" class="cls-1" d="M344.43-23.373l-.24.414H203.152l-.24-.414h-4.984l2.732,4.732H346.682l2.733-4.732Z" transform="translate(-197.928 23.373)"/>
            </g>
            <g id="组_1389" data-name="组 1389" transform="translate(405.711 870.516)">
              <path id="路径_782" data-name="路径 782" class="cls-1" d="M185.481,477.546,118.263,361.124l70.518-122.141H329.819l70.518,122.141L333.119,477.546H338.1L405.32,361.124,332.31,234.665H186.289l-73.01,126.459L180.5,477.546Z" transform="translate(-113.279 -234.665)"/>
            </g>
            <g id="组_1390" data-name="组 1390" transform="translate(260.695)">
              <path id="路径_783" data-name="路径 783" class="cls-1" d="M216.795-23.373l-.24.414H75.518l-.24-.414H70.293l2.732,4.732H219.047l2.732-4.732Z" transform="translate(-70.293 23.373)"/>
            </g>
            <g id="组_1391" data-name="组 1391" transform="translate(190.419 746.216)">
              <path id="路径_784" data-name="路径 784" class="cls-1" d="M49.462,324.279,122.47,197.82H268.492L341.5,324.279,268.492,450.738H122.47Zm75.5-122.141L54.445,324.279,124.963,446.42H266l70.518-122.141L266,202.138Z" transform="translate(-49.462 -197.82)"/>
            </g>
            <g id="组_1392" data-name="组 1392" transform="translate(194.964 994.816)">
              <path id="路径_785" data-name="路径 785" class="cls-1" d="M55.794,390.091l65.971-114.263H262.8l65.971,114.263h4.985L265.295,271.51H119.273L50.809,390.091Z" transform="translate(-50.809 -271.51)"/>
            </g>
            <g id="组_1393" data-name="组 1393">
              <path id="路径_786" data-name="路径 786" class="cls-1" d="M253.714-23.373,255.2-20.8,184.681,101.341H43.644L-6.982,13.655v8.633l48.133,83.371H187.174L260.184-20.8,258.7-23.373Z" transform="translate(6.982 23.373)"/>
            </g>
            <g id="组_1394" data-name="组 1394" transform="translate(0 124.715)">
              <path id="路径_787" data-name="路径 787" class="cls-1" d="M187.174,13.594H41.151L-6.982,96.965V105.6L43.644,17.912H184.681L255.2,140.054,184.681,262.195H43.644L-6.982,174.509v8.633l48.133,83.371H187.174l73.01-126.459Z" transform="translate(6.982 -13.594)"/>
            </g>
            <g id="组_1395" data-name="组 1395" transform="translate(0 373.315)">
              <path id="路径_788" data-name="路径 788" class="cls-1" d="M187.174,87.285H41.151L-6.982,170.655v8.633L43.644,91.6H184.681L255.2,213.744,184.681,335.885H43.644L-6.982,248.2v8.633L41.151,340.2H187.174l73.01-126.459Z" transform="translate(6.982 -87.285)"/>
            </g>
            <g id="组_1396" data-name="组 1396" transform="translate(0 621.915)">
              <path id="路径_789" data-name="路径 789" class="cls-1" d="M187.174,160.975H41.151L-6.982,244.345v8.633l50.625-87.686H184.681L255.2,287.434,184.681,409.575H43.644L-6.982,321.889v8.633l48.133,83.371H187.174l73.01-126.459Z" transform="translate(6.982 -160.975)"/>
            </g>
            <g id="组_1397" data-name="组 1397" transform="translate(0 870.516)">
              <path id="路径_790" data-name="路径 790" class="cls-1" d="M-6.982,291l42.341,73.334h4.985L-6.982,282.363Z" transform="translate(6.982 -121.45)"/>
              <path id="路径_791" data-name="路径 791" class="cls-1" d="M187.174,234.665H41.151L-6.982,318.035v8.634l50.625-87.687H184.681L255.2,361.124,187.982,477.546h4.985l67.217-116.422Z" transform="translate(6.982 -234.665)"/>
            </g>
            <g id="组_1398" data-name="组 1398" transform="translate(0 37.028)">
              <path id="路径_792" data-name="路径 792" class="cls-1" d="M-6.982-12.4v8.634L39.906,77.448-6.982,158.659v8.633L44.89,77.448Z" transform="translate(6.982 12.398)"/>
            </g>
            <g id="组_1399" data-name="组 1399" transform="translate(0 285.629)">
              <path id="路径_793" data-name="路径 793" class="cls-1" d="M-6.982,61.293v8.634l46.888,81.211L-6.982,232.35v8.633L44.89,151.138Z" transform="translate(6.982 -61.293)"/>
            </g>
            <g id="组_1400" data-name="组 1400" transform="translate(0 534.229)">
              <path id="路径_794" data-name="路径 794" class="cls-1" d="M-6.982,134.983v8.633l46.888,81.212L-6.982,306.039v8.634L44.89,224.828Z" transform="translate(6.982 -134.983)"/>
            </g>
            <g id="组_1401" data-name="组 1401" transform="translate(0 782.83)">
              <path id="路径_795" data-name="路径 795" class="cls-1" d="M-6.982,208.673v8.633l46.888,81.212L-6.982,379.729v8.634L44.89,298.518Z" transform="translate(6.982 -208.673)"/>
            </g>
            <g id="组_1402" data-name="组 1402" transform="translate(0 1031.429)">
              <path id="路径_796" data-name="路径 796" class="cls-1" d="M-6.982,282.363V291l42.341,73.335h4.984Z" transform="translate(6.982 -282.363)"/>
            </g>
          </g>
          <g id="组_1404" data-name="组 1404" transform="translate(0 0.055)">
            <path id="路径_797" data-name="路径 797" class="cls-1" d="M378.538,70.911a8.232,8.232,0,1,0,8.232-8.232A8.23,8.23,0,0,0,378.538,70.911Z" transform="translate(922.049 227.571)"/>
            <circle id="椭圆_146" data-name="椭圆 146" class="cls-1" cx="7.406" cy="7.406" r="7.406" transform="translate(1246.349 386.451)"/>
            <path id="路径_798" data-name="路径 798" class="cls-1" d="M403.547,130.982A13.248,13.248,0,1,0,390.3,144.23,13.247,13.247,0,0,0,403.547,130.982Z" transform="translate(918.52 358.25)"/>
            <circle id="椭圆_147" data-name="椭圆 147" class="cls-1" cx="12.284" cy="12.284" r="12.284" transform="translate(1296.535 667.699)"/>
            <path id="路径_799" data-name="路径 799" class="cls-1" d="M379.418,238.451a5.263,5.263,0,1,0,5.263-5.266A5.263,5.263,0,0,0,379.418,238.451Z" transform="translate(924.138 632.283)"/>
            <path id="路径_800" data-name="路径 800" class="cls-1" d="M378.347,297.535a8.876,8.876,0,1,0,8.876-8.879A8.876,8.876,0,0,0,378.347,297.535Z" transform="translate(921.596 763.949)"/>
            <path id="路径_801" data-name="路径 801" class="cls-1" d="M329.062,100.39a9.949,9.949,0,1,0,9.949-9.949A9.949,9.949,0,0,0,329.062,100.39Z" transform="translate(804.614 293.467)"/>
            <path id="路径_802" data-name="路径 802" class="cls-1" d="M373.319,153.509a5.086,5.086,0,1,0-5.084,5.087A5.085,5.085,0,0,0,373.319,153.509Z" transform="translate(885.52 431.097)"/>
            <path id="路径_803" data-name="路径 803" class="cls-1" d="M329.214,156.571a9.436,9.436,0,1,0,9.436-9.436A9.435,9.435,0,0,0,329.214,156.571Z" transform="translate(804.974 428.036)"/>
            <circle id="椭圆_148" data-name="椭圆 148" class="cls-1" cx="5.956" cy="5.956" r="5.956" transform="translate(1082.603 674.026)"/>
            <circle id="椭圆_149" data-name="椭圆 149" class="cls-1" cx="13.938" cy="13.938" r="13.938" transform="translate(1239.816 761.42)"/>
            <path id="路径_804" data-name="路径 804" class="cls-1" d="M361.591,270.29a10.338,10.338,0,1,0,10.34-10.337A10.338,10.338,0,0,0,361.591,270.29Z" transform="translate(881.824 695.82)"/>
            <path id="路径_805" data-name="路径 805" class="cls-1" d="M312.635,298.537a10.3,10.3,0,1,0,10.3-10.3A10.3,10.3,0,0,0,312.635,298.537Z" transform="translate(765.623 762.947)"/>
            <path id="路径_806" data-name="路径 806" class="cls-1" d="M328.41,271.564a12.147,12.147,0,1,0,12.148-12.148A12.147,12.147,0,0,0,328.41,271.564Z" transform="translate(803.066 694.545)"/>
            <path id="路径_807" data-name="路径 807" class="cls-1" d="M321.265,135.159a7.923,7.923,0,1,0-7.925-7.925A7.923,7.923,0,0,0,321.265,135.159Z" transform="translate(767.296 361.997)"/>
            <circle id="椭圆_150" data-name="椭圆 150" class="cls-1" cx="6.388" cy="6.388" r="6.388" transform="translate(1137.237 768.97)"/>
            <path id="路径_808" data-name="路径 808" class="cls-1" d="M313.66,239.562a6.843,6.843,0,1,0,6.845-6.845A6.843,6.843,0,0,0,313.66,239.562Z" transform="translate(768.055 631.172)"/>
            <circle id="椭圆_151" data-name="椭圆 151" class="cls-1" cx="8.826" cy="8.826" r="8.826" transform="translate(969.603 1052.658)"/>
            <circle id="椭圆_152" data-name="椭圆 152" class="cls-1" cx="10.194" cy="10.194" r="10.194" transform="translate(968.235 669.789)"/>
            <path id="路径_809" data-name="路径 809" class="cls-1" d="M274.17,203.337a10.586,10.586,0,1,0,10.586,10.586A10.584,10.584,0,0,0,274.17,203.337Z" transform="translate(649.195 561.436)"/>
            <path id="路径_810" data-name="路径 810" class="cls-1" d="M215.858,239.249a6.4,6.4,0,1,0,6.4-6.4A6.4,6.4,0,0,0,215.858,239.249Z" transform="translate(535.913 631.486)"/>
            <path id="路径_811" data-name="路径 811" class="cls-1" d="M248.267,212.338a8.329,8.329,0,1,0-8.329,8.329A8.331,8.331,0,0,0,248.267,212.338Z" transform="translate(573.297 563.022)"/>
            <circle id="椭圆_153" data-name="椭圆 153" class="cls-1" cx="8.889" cy="8.889" r="8.889" transform="translate(969.54 861.844)"/>
            <path id="路径_812" data-name="路径 812" class="cls-1" d="M230.334,271.9a12.627,12.627,0,1,0,12.627-12.627A12.625,12.625,0,0,0,230.334,271.9Z" transform="translate(570.273 694.208)"/>
            <path id="路径_813" data-name="路径 813" class="cls-1" d="M215.641,296.306a7.132,7.132,0,1,0,7.132-7.132A7.132,7.132,0,0,0,215.641,296.306Z" transform="translate(535.398 765.178)"/>
            <path id="路径_814" data-name="路径 814" class="cls-1" d="M263.018,271.806a12.494,12.494,0,1,0,12.5-12.492A12.494,12.494,0,0,0,263.018,271.806Z" transform="translate(647.852 694.303)"/>
            <path id="路径_815" data-name="路径 815" class="cls-1" d="M165.972-13.01a9.5,9.5,0,0,0,9.5,9.5,9.5,9.5,0,0,0,9.5-9.5,9.5,9.5,0,0,0-9.5-9.5A9.5,9.5,0,0,0,165.972-13.01Z" transform="translate(417.504 25.367)"/>
            <circle id="椭圆_154" data-name="椭圆 154" class="cls-1" cx="9.172" cy="9.172" r="9.172" transform="translate(638.868 98.559)"/>
            <path id="路径_816" data-name="路径 816" class="cls-1" d="M165.6,44.4a10.736,10.736,0,1,0,10.738-10.738A10.735,10.735,0,0,0,165.6,44.4Z" transform="translate(416.633 158.704)"/>
            <path id="路径_817" data-name="路径 817" class="cls-1" d="M132.663,45.108a11.74,11.74,0,1,0,11.74-11.74A11.74,11.74,0,0,0,132.663,45.108Z" transform="translate(338.442 157.999)"/>
            <path id="路径_818" data-name="路径 818" class="cls-1" d="M129.841,238.886a5.882,5.882,0,1,0-5.88,5.88A5.882,5.882,0,0,0,129.841,238.886Z" transform="translate(303.821 631.849)"/>
            <path id="路径_819" data-name="路径 819" class="cls-1" d="M183.074,239.579a6.869,6.869,0,1,0,6.869-6.869A6.868,6.868,0,0,0,183.074,239.579Z" transform="translate(458.097 631.156)"/>
            <path id="路径_820" data-name="路径 820" class="cls-1" d="M191.63,272.452a13.408,13.408,0,1,0-13.407,13.41A13.406,13.406,0,0,0,191.63,272.452Z" transform="translate(414.753 693.657)"/>
            <path id="路径_821" data-name="路径 821" class="cls-1" d="M182.948,296.42a7.294,7.294,0,1,0,7.294-7.294A7.294,7.294,0,0,0,182.948,296.42Z" transform="translate(457.798 765.064)"/>
            <path id="路径_822" data-name="路径 822" class="cls-1" d="M157.195-11a12.358,12.358,0,0,0-12.357-12.357A12.358,12.358,0,0,0,132.48-11,12.357,12.357,0,0,0,144.838,1.355,12.357,12.357,0,0,0,157.195-11Z" transform="translate(338.008 23.357)"/>
            <path id="路径_823" data-name="路径 823" class="cls-1" d="M123.021,7.23a4.544,4.544,0,1,0,4.544,4.544A4.547,4.547,0,0,0,123.021,7.23Z" transform="translate(304.761 95.958)"/>
            <path id="路径_824" data-name="路径 824" class="cls-1" d="M68.151,43.261a9.117,9.117,0,1,0,9.119-9.115A9.117,9.117,0,0,0,68.151,43.261Z" transform="translate(185.317 159.846)"/>
            <path id="路径_825" data-name="路径 825" class="cls-1" d="M110.918,18.382A13.936,13.936,0,1,0,96.981,32.319,13.936,13.936,0,0,0,110.918,18.382Z" transform="translate(220.669 89.35)"/>
            <path id="路径_826" data-name="路径 826" class="cls-1" d="M92.744,248.231a7.916,7.916,0,1,0-7.914-7.914A7.913,7.913,0,0,0,92.744,248.231Z" transform="translate(224.906 630.418)"/>
            <path id="路径_827" data-name="路径 827" class="cls-1" d="M116.764,298.544a10.313,10.313,0,1,0,10.313-10.313A10.312,10.312,0,0,0,116.764,298.544Z" transform="translate(300.705 762.94)"/>
            <path id="路径_828" data-name="路径 828" class="cls-1" d="M104.722,298.535a10.3,10.3,0,1,0-10.3,10.3A10.3,10.3,0,0,0,104.722,298.535Z" transform="translate(223.228 762.949)"/>
            <path id="路径_829" data-name="路径 829" class="cls-1" d="M79.252.634A11.934,11.934,0,0,0,91.184-11.3,11.932,11.932,0,0,0,79.252-23.231,11.933,11.933,0,0,0,67.316-11.3,11.935,11.935,0,0,0,79.252.634Z" transform="translate(183.335 23.656)"/>
            <path id="路径_830" data-name="路径 830" class="cls-1" d="M19.106,15.178A9.38,9.38,0,1,0,28.488,5.8,9.381,9.381,0,0,0,19.106,15.178Z" transform="translate(68.904 92.554)"/>
            <path id="路径_831" data-name="路径 831" class="cls-1" d="M55.083,43.817a9.9,9.9,0,1,0-9.9,9.9A9.9,9.9,0,0,0,55.083,43.817Z" transform="translate(107.278 159.29)"/>
            <circle id="椭圆_155" data-name="椭圆 155" class="cls-1" cx="8.193" cy="8.193" r="8.193" transform="translate(254.392 767.165)"/>
            <path id="路径_832" data-name="路径 832" class="cls-1" d="M68.167,269.395a9.063,9.063,0,1,0,9.065-9.065A9.065,9.065,0,0,0,68.167,269.395Z" transform="translate(185.355 696.714)"/>
            <circle id="椭圆_156" data-name="椭圆 156" class="cls-1" cx="5.535" cy="5.535" r="5.535" transform="translate(146.92 6.821)"/>
            <path id="路径_833" data-name="路径 833" class="cls-1" d="M19.717,70.267a7.319,7.319,0,1,0,7.321-7.317A7.318,7.318,0,0,0,19.717,70.267Z" transform="translate(70.355 228.215)"/>
            <circle id="椭圆_157" data-name="椭圆 157" class="cls-1" cx="9.174" cy="9.174" r="9.174" transform="translate(143.282 766.184)"/>
            <circle id="椭圆_158" data-name="椭圆 158" class="cls-1" cx="5.115" cy="5.115" r="5.115" transform="translate(92.275 865.618)"/>
            <path id="路径_834" data-name="路径 834" class="cls-1" d="M-6.982,232.817v13.012a14.187,14.187,0,0,0,1.626-6.5A14.212,14.212,0,0,0-6.982,232.817Z" transform="translate(6.982 631.41)"/>
            <path id="路径_835" data-name="路径 835" class="cls-1" d="M54.445,269.722a9.53,9.53,0,1,0-9.53,9.53A9.531,9.531,0,0,0,54.445,269.722Z" transform="translate(107.542 696.387)"/>
            <path id="路径_836" data-name="路径 836" class="cls-1" d="M41.108,299.228a11.283,11.283,0,1,0-11.281,11.285A11.284,11.284,0,0,0,41.108,299.228Z" transform="translate(67.566 762.256)"/>
          </g>
        </g>
      </g>
    </g>
  </g>
</svg>
