<svg xmlns="http://www.w3.org/2000/svg" width="16.971" height="19.396" viewBox="0 0 16.971 19.396">
  <defs>
    <style>
      .cls-1 {
        opacity: 0.099;
      }
    </style>
  </defs>
  <g id="icon-lock" class="cls-1" transform="translate(-2 0)">
    <path id="路径_691" data-name="路径 691" d="M10.485,0A6.154,6.154,0,0,0,4.331,6.154V7.273H3.212A1.213,1.213,0,0,0,2,8.485v9.7A1.213,1.213,0,0,0,3.212,19.4H17.759a1.213,1.213,0,0,0,1.212-1.212v-9.7a1.213,1.213,0,0,0-1.212-1.212H16.64V6.154A6.154,6.154,0,0,0,10.485,0ZM6.755,6.154a3.73,3.73,0,0,1,7.46,0V7.273H6.755Zm3.73,9.6a2.424,2.424,0,1,1,2.424-2.424A2.424,2.424,0,0,1,10.485,15.759Z" transform="translate(0)"/>
  </g>
</svg>
