<svg xmlns="http://www.w3.org/2000/svg" width="278.547" height="34.055" viewBox="0 0 278.547 34.055">
  <defs>
    <style>
      .cls-1, .cls-2, .cls-3, .cls-4, .cls-5, .cls-6, .cls-7 {
        fill: #fff;
      }

      .cls-1 {
        opacity: 0.6;
      }

      .cls-2 {
        opacity: 0.4;
      }

      .cls-3 {
        opacity: 0.3;
      }

      .cls-4 {
        opacity: 0.2;
      }

      .cls-5 {
        opacity: 0.1;
      }

      .cls-6 {
        opacity: 0.8;
      }
    </style>
  </defs>
  <g id="logo" transform="translate(-105 -52)">
    <g id="组_366" data-name="组 366" transform="translate(105 52)">
      <path id="路径_411" data-name="路径 411" class="cls-1" d="M651.572,104.509V101.3h-5.764a3.21,3.21,0,0,0,0,6.42h8.973A3.21,3.21,0,0,1,651.572,104.509Z" transform="translate(-642.598 -90.83)"/>
      <path id="路径_412" data-name="路径 412" class="cls-1" d="M677.081,107.719h7.338a3.21,3.21,0,0,0,0-6.42h-4.128v3.21A3.211,3.211,0,0,1,677.081,107.719Z" transform="translate(-664.898 -90.83)"/>
      <path id="路径_413" data-name="路径 413" class="cls-2" d="M674.417,88.837V82.028a3.211,3.211,0,0,1-3.21,3.21H668v3.6Z" transform="translate(-659.023 -78.367)"/>
      <path id="路径_414" data-name="路径 414" class="cls-3" d="M668,104.509a3.21,3.21,0,0,0,6.42,0V101.3H668Z" transform="translate(-659.023 -90.83)"/>
      <path id="路径_415" data-name="路径 415" class="cls-4" d="M746.825,138.81a10.778,10.778,0,0,1-14.9,0,3.176,3.176,0,0,1-4.492,4.492,16.89,16.89,0,0,0,23.885,0,3.176,3.176,0,0,0-4.492-4.492Z" transform="translate(-697.46 -114.486)"/>
      <path id="路径_416" data-name="路径 416" class="cls-1" d="M731.924,76.6a3.176,3.176,0,0,1,0,4.492,10.549,10.549,0,0,1,14.9,0,3.176,3.176,0,1,0,4.492-4.492,16.923,16.923,0,0,0-23.885,0A3.176,3.176,0,0,1,731.924,76.6Z" transform="translate(-697.46 -71.667)"/>
      <path id="路径_417" data-name="路径 417" class="cls-4" d="M654.781,72.943h-8.973a3.21,3.21,0,0,0,0,6.42h5.764v-3.21A3.211,3.211,0,0,1,654.781,72.943Z" transform="translate(-642.598 -72.492)"/>
      <path id="路径_418" data-name="路径 418" class="cls-5" d="M674.417,76.153a3.21,3.21,0,0,0-6.42,0v3.21h3.209A3.211,3.211,0,0,0,674.417,76.153Z" transform="translate(-659.023 -72.492)"/>
      <path id="路径_419" data-name="路径 419" class="cls-2" d="M652.814,128a3.031,3.031,0,0,1,.316-.26,3.133,3.133,0,0,0-.316.257l-8.734,8.736a3.076,3.076,0,0,0,4.349,4.35l6.56-6.562-2.176-2.174A3.073,3.073,0,0,1,652.814,128Z" transform="translate(-642.974 -107.932)"/>
      <path id="路径_420" data-name="路径 420" class="cls-4" d="M678.781,128.472a3.076,3.076,0,0,1,0,4.35L676.607,135l6.273,6.269a3.076,3.076,0,0,0,4.35-4.35Z" transform="translate(-664.592 -108.402)"/>
      <path id="路径_421" data-name="路径 421" class="cls-5" d="M673.15,126.827a3.051,3.051,0,0,0-4.034-.257,3.027,3.027,0,0,0-.316.26,3.073,3.073,0,0,0,0,4.347l2.176,2.174,2.174-2.174A3.076,3.076,0,0,0,673.15,126.827Z" transform="translate(-658.961 -106.757)"/>
      <path id="路径_422" data-name="路径 422" class="cls-2" d="M718.393,105.019a3.176,3.176,0,0,1,4.492,0,10.546,10.546,0,0,1,0-14.9,3.176,3.176,0,0,1-4.492-4.492,16.907,16.907,0,0,0,0,23.883A3.176,3.176,0,0,1,718.393,105.019Z" transform="translate(-688.421 -80.695)"/>
      <path id="路径_423" data-name="路径 423" class="cls-5" d="M730.221,143.3a3.179,3.179,0,1,0-2.246.929A3.177,3.177,0,0,0,730.221,143.3Z" transform="translate(-695.757 -114.486)"/>
      <path id="路径_424" data-name="路径 424" class="cls-3" d="M725.729,88.415a3.175,3.175,0,1,0,0-4.489A3.171,3.171,0,0,0,725.729,88.415Z" transform="translate(-695.757 -78.993)"/>
    </g>
    <g id="组_433" data-name="组 433" transform="translate(105 52)">
      <path id="路径_411-2" data-name="路径 411" class="cls-6" d="M651.572,104.509V101.3h-5.764a3.21,3.21,0,0,0,0,6.42h8.973A3.21,3.21,0,0,1,651.572,104.509Z" transform="translate(-642.598 -90.83)"/>
      <path id="路径_412-2" data-name="路径 412" class="cls-6" d="M677.081,107.719h7.338a3.21,3.21,0,0,0,0-6.42h-4.128v3.21A3.211,3.211,0,0,1,677.081,107.719Z" transform="translate(-664.898 -90.83)"/>
      <path id="路径_413-2" data-name="路径 413" class="cls-1" d="M674.417,88.837V82.028a3.211,3.211,0,0,1-3.21,3.21H668v3.6Z" transform="translate(-659.023 -78.367)"/>
      <path id="路径_414-2" data-name="路径 414" class="cls-2" d="M668,104.509a3.21,3.21,0,0,0,6.42,0V101.3H668Z" transform="translate(-659.023 -90.83)"/>
      <path id="路径_415-2" data-name="路径 415" class="cls-2" d="M746.825,138.81a10.778,10.778,0,0,1-14.9,0,3.176,3.176,0,0,1-4.492,4.492,16.89,16.89,0,0,0,23.885,0,3.176,3.176,0,0,0-4.492-4.492Z" transform="translate(-697.46 -114.486)"/>
      <path id="路径_416-2" data-name="路径 416" class="cls-6" d="M731.924,76.6a3.176,3.176,0,0,1,0,4.492,10.549,10.549,0,0,1,14.9,0,3.176,3.176,0,1,0,4.492-4.492,16.923,16.923,0,0,0-23.885,0A3.176,3.176,0,0,1,731.924,76.6Z" transform="translate(-697.46 -71.667)"/>
      <path id="路径_417-2" data-name="路径 417" class="cls-2" d="M654.781,72.943h-8.973a3.21,3.21,0,0,0,0,6.42h5.764v-3.21A3.211,3.211,0,0,1,654.781,72.943Z" transform="translate(-642.598 -72.492)"/>
      <path id="路径_418-2" data-name="路径 418" class="cls-5" d="M674.417,76.153a3.21,3.21,0,0,0-6.42,0v3.21h3.209A3.211,3.211,0,0,0,674.417,76.153Z" transform="translate(-659.023 -72.492)"/>
      <path id="路径_419-2" data-name="路径 419" class="cls-1" d="M652.814,128a3.031,3.031,0,0,1,.316-.26,3.133,3.133,0,0,0-.316.257l-8.734,8.736a3.076,3.076,0,0,0,4.349,4.35l6.56-6.562-2.176-2.174A3.073,3.073,0,0,1,652.814,128Z" transform="translate(-642.974 -107.932)"/>
      <path id="路径_420-2" data-name="路径 420" class="cls-2" d="M678.781,128.472a3.076,3.076,0,0,1,0,4.35L676.607,135l6.273,6.269a3.076,3.076,0,0,0,4.35-4.35Z" transform="translate(-664.592 -108.402)"/>
      <path id="路径_421-2" data-name="路径 421" class="cls-5" d="M673.15,126.827a3.051,3.051,0,0,0-4.034-.257,3.027,3.027,0,0,0-.316.26,3.073,3.073,0,0,0,0,4.347l2.176,2.174,2.174-2.174A3.076,3.076,0,0,0,673.15,126.827Z" transform="translate(-658.961 -106.757)"/>
      <path id="路径_422-2" data-name="路径 422" class="cls-1" d="M718.393,105.019a3.176,3.176,0,0,1,4.492,0,10.546,10.546,0,0,1,0-14.9,3.176,3.176,0,0,1-4.492-4.492,16.907,16.907,0,0,0,0,23.883A3.176,3.176,0,0,1,718.393,105.019Z" transform="translate(-688.421 -80.695)"/>
      <path id="路径_423-2" data-name="路径 423" class="cls-5" d="M730.221,143.3a3.179,3.179,0,1,0-2.246.929A3.177,3.177,0,0,0,730.221,143.3Z" transform="translate(-695.757 -114.486)"/>
      <path id="路径_424-2" data-name="路径 424" class="cls-2" d="M725.729,88.415a3.175,3.175,0,1,0,0-4.489A3.171,3.171,0,0,0,725.729,88.415Z" transform="translate(-695.757 -78.993)"/>
    </g>
    <g id="组_434" data-name="组 434" transform="translate(171.463 54.179)">
      <path id="路径_499" data-name="路径 499" class="cls-7" d="M5.175,1101.516l3.47-4.937H5.175v-2.51h5.219l2.313-3.329h-2.68l-.818,1.523H5.175l2.877-5.444h4.062l-.762,1.41h8.689v2.511H16.769l-2.313,3.329h6.6v2.51h-3.1l3.413,4.937H17.333l-3.442-4.937H12.679l-3.47,4.937Zm28.182.931v13.259H28.871v-.649H11.212v.649H6.557v-13.259h4.655v1.664l1.326-1.636H28.871v-.028Zm-22.145,2.878v2.172h17.66v-2.172Zm0,4.683v2.2h17.66v-2.2Zm14.444-22.484v1.721l1.354-1.721h7.73v13.992H30.846v-.423H25.656v.423H21.791v-13.992Zm0,2.877v8.181h5.191V1090.4Z" transform="translate(-5.175 -1086.818)"/>
      <path id="路径_500" data-name="路径 500" class="cls-7" d="M328.857,1115.705H324.2l1.467-7.024h4.655Zm-3.611-27.956H329.2v-.931h5.3v.931h3.949v2.256H334.5v.762h3.3v2.285h-3.3v.734h4.2v2.313h-4.2v1.044h-5.3V1096.1h-4.2v-2.313h4.2v-.734h-3.357v-2.285H329.2v-.762h-3.949Zm.508,17.292h21.158v-.9H327.333v-2.6h19.578v-.875H325.754v-2.6h26.433v9.563H325.754Zm5.9,3.64H336.3l-1.044,4.908h12.384v2.116H330.183Zm10.466,3.7-.31-1.58H337.15l.423-2.116h8.435l.762,3.7Zm-2.6-24.627h3.949v-.931h5.275v.931h4.006v2.256h-4.006v.762H352.1v2.285h-3.357v.734h4.231v2.313h-4.231v1.044h-5.275V1096.1h-4.231v-2.313h4.231v-.734h-3.329v-2.285h3.329v-.762H339.52Zm9.591,27.956-1.5-7.024h4.655l1.5,7.024Z" transform="translate(-287.676 -1086.818)"/>
      <path id="路径_501" data-name="路径 501" class="cls-7" d="M650.874,1115.705a2.425,2.425,0,0,0-.86-1.58,3.067,3.067,0,0,0-1.82-.734v-1.044h3.075V1105.3h-3.357v3.865l-.536,6.544h-4.147l.508-6.544v-22.343h4.175v1.213l1.213-1.213h6.319v28.887Zm.395-20.9v-5.163h-3.357v5.163Zm-3.357,7.7h3.357v-4.852h-3.357Zm8.66-15.685h16.221v10.607h-4.457a2.331,2.331,0,0,0-.818-1.58,2.971,2.971,0,0,0-1.777-.734v-1.043h2.68v-4.458h-7.447v8.717h11.82v5.614l-3.272,5.868,3.272,5.9h-4.767l-.9-1.636-.9,1.636h-4.768l3.272-5.9-3.188-5.67h4.824l.761,1.354,1.3-2.341v-2h-7.447v14.557h-4.4Z" transform="translate(-570.176 -1086.818)"/>
      <path id="路径_502" data-name="路径 502" class="cls-7" d="M962.256,1097.933l3.3-11.115h4.768l-.508,1.636h21.1v7.025l-8.491,2.877,9.337,3.244v3.639l-.846-.31v10.776h-9.676a2.717,2.717,0,0,0-.987-1.735,3.576,3.576,0,0,0-2.031-.832v-1.185h8.237V1107.3H973.935l-4.683,8.407h-4.937L969,1107.3h-5.7v-2.426l-1.044.366V1101.6l9.591-3.272-4.514-1.552-.31,1.157Zm2.229,6.545h6.065l1.1-1.946h4.937l-1.072,1.946h14.161l-12.553-4.316Zm12.638-7.955,9.789-3.329v-1.947H969l-.677,2.228Z" transform="translate(-852.677 -1086.818)"/>
      <path id="路径_503" data-name="路径 503" class="cls-7" d="M1280.3,1094.307h12.159v-7h5.078v7h12.3v3.611h-12.243l11.679,18.167h-5.727l-8.6-13.456-8.491,13.456h-5.727l11.736-18.167H1280.3Z" transform="translate(-1134.305 -1087.254)"/>
      <path id="路径_504" data-name="路径 504" class="cls-7" d="M1629.543,1087.064v3.357h-24.2v18.364l-.846,7.137h-4.429l.875-7.137v-21.693h.338v-.028h4.063v1.523l1.157-1.523Zm-22.738,7.025h22.089v3.075h-8.717v18.76H1614.7a2.294,2.294,0,0,0-.8-1.453,2.84,2.84,0,0,0-1.678-.691v-.959h3.131v-15.657h-8.548Z" transform="translate(-1417.459 -1087.036)"/>
    </g>
  </g>
</svg>
