<svg xmlns="http://www.w3.org/2000/svg" width="36" height="36" viewBox="0 0 36 36">
  <defs>
    <style>
      .cls-1 {
        opacity: 0.203;
      }
    </style>
  </defs>
  <path id="减去_8" data-name="减去 8" class="cls-1" d="M18,36A18,18,0,0,1,10.994,1.415,18,18,0,0,1,25.007,34.585,17.887,17.887,0,0,1,18,36Zm-1.143-7.786a8.975,8.975,0,0,0,.919.061h.08a30.675,30.675,0,0,0,3.892.217,7.332,7.332,0,0,0,2.7-.291c0-.008,0-.02,0-.033a.678.678,0,0,0-.3-.642,7.1,7.1,0,0,0-1.723-.75A5.835,5.835,0,0,0,24.6,22.5c.013.021,1.309,2.176,1.777,2.176l.023,0a.118.118,0,0,0,.088-.058c.187-.253.331-1.413-.463-3.992a11.318,11.318,0,0,0-.4-1.188c-.094-.249-.19-.506-.276-.761l-.975-2.325V15.6a9.823,9.823,0,0,0-1.528-5.569A5.774,5.774,0,0,0,20.8,8.2a6.417,6.417,0,0,0-3.024-.7,5.9,5.9,0,0,0-5.044,2.531A9.752,9.752,0,0,0,11.176,15.6v.75h0a.749.749,0,0,0,.114.086l-.939,2.239c-.086.257-.183.516-.277.766a11.309,11.309,0,0,0-.4,1.183c-.748,2.37-.685,3.687-.46,3.993a.114.114,0,0,0,.085.057l.023,0c.458,0,1.721-2.085,1.775-2.174a5.627,5.627,0,0,0,1.6,3.7,6.408,6.408,0,0,0,2.891,1.751,6.174,6.174,0,0,1-2.31-1.179,7.1,7.1,0,0,0-1.725.75.678.678,0,0,0-.3.642c0,.014,0,.025,0,.033a7.2,7.2,0,0,0,2.675.291,32.231,32.231,0,0,0,3.925-.216h-.033a7.872,7.872,0,0,1-.961-.06Z"/>
</svg>
