<svg xmlns="http://www.w3.org/2000/svg" width="36" height="36" viewBox="0 0 36 36">
  <defs>
    <style>
      .cls-1 {
        opacity: 0.203;
      }
    </style>
  </defs>
  <path id="减去_7" data-name="减去 7" class="cls-1" d="M18,36A18,18,0,0,1,10.994,1.415,18,18,0,0,1,25.007,34.585,17.887,17.887,0,0,1,18,36Zm6.565-9.814h0l2.279,1.363-.676-2.039a5.313,5.313,0,0,0,2.857-4.5c0-3.006-2.935-5.452-6.543-5.452S15.94,18,15.94,21.006s2.935,5.453,6.542,5.453a7.659,7.659,0,0,0,2.083-.273ZM15.394,10.1c-4.51,0-8.179,2.935-8.179,6.543a6.114,6.114,0,0,0,3.032,5.081L9.4,24.278l2.726-1.636a9.612,9.612,0,0,0,3.173.545,5.705,5.705,0,0,1-.446-2.181c0-3.607,3.424-6.542,7.633-6.542a3.744,3.744,0,0,1,.61.033C21.947,11.868,18.854,10.1,15.394,10.1Zm9.269,10.359a1.09,1.09,0,1,1,1.091-1.091A1.092,1.092,0,0,1,24.663,20.461Zm-4.362,0a1.09,1.09,0,1,1,1.091-1.091A1.092,1.092,0,0,1,20.3,20.461Zm-2.726-5.452a1.091,1.091,0,1,1,1.091-1.091A1.092,1.092,0,0,1,17.575,15.009Zm-5.452,0a1.091,1.091,0,1,1,1.091-1.091A1.092,1.092,0,0,1,12.123,15.009Z"/>
</svg>
