<svg xmlns="http://www.w3.org/2000/svg" width="21.286" height="22.876" viewBox="0 0 21.286 22.876">
  <defs>
    <style>
      .cls-1 {
        opacity: 0.099;
      }
    </style>
  </defs>
  <g id="组_1313" data-name="组 1313" class="cls-1" transform="translate(-663.9 -178)">
    <path id="路径_692" data-name="路径 692" d="M45.063,24.846a5.054,5.054,0,0,0-4.241-3.751l-1.835-.245-.53-1.59a7.4,7.4,0,0,0,3.017-4.526A2.805,2.805,0,0,0,42.861,12a3.256,3.256,0,0,0-.652-2.447,2.276,2.276,0,0,0-.326-.2,7.357,7.357,0,0,0-14.68,0,1.239,1.239,0,0,0-.285.2A3.32,3.32,0,0,0,26.265,12a2.868,2.868,0,0,0,1.346,2.732,7.577,7.577,0,0,0,3.017,4.526l-.53,1.59-1.835.245a5.011,5.011,0,0,0-4.241,3.751l-.122.53H45.186Zm-13.9-3.384.53-1.59a6.807,6.807,0,0,0,2.854.652,6.624,6.624,0,0,0,2.814-.652l.53,1.59A5.69,5.69,0,0,1,31.158,21.461ZM34.543,19.3a6.07,6.07,0,0,1-5.79-5.138.612.612,0,0,0-.449-.489c-.082,0-.816-.245-.816-1.672a3.738,3.738,0,0,1,.163-1.346h.2c0,.2.122.979.326.979h.856a.351.351,0,0,0,.326-.326s.2-2.2.367-3.629a.493.493,0,0,1,.612-.449,20.583,20.583,0,0,0,4.282.408,20.583,20.583,0,0,0,4.282-.408.493.493,0,0,1,.612.449c.163,1.427.326,3.629.326,3.629a.3.3,0,0,0,.326.326h.856c.163,0,.326-.775.326-.979h.2A3.918,3.918,0,0,1,41.72,12c0,1.427-.734,1.672-.816,1.672a.617.617,0,0,0-.449.489A6.264,6.264,0,0,1,34.543,19.3Z" transform="translate(640 175.5)"/>
    <circle id="椭圆_144" data-name="椭圆 144" cx="1.06" cy="1.06" r="1.06" transform="translate(671.281 185.992)"/>
    <circle id="椭圆_145" data-name="椭圆 145" cx="1.06" cy="1.06" r="1.06" transform="translate(675.685 185.992)"/>
    <path id="路径_693" data-name="路径 693" d="M48.219,33.57a2.571,2.571,0,0,1-3.017,0,.433.433,0,1,0-.652.571,3.155,3.155,0,0,0,4.322,0,.446.446,0,0,0-.041-.612A.409.409,0,0,0,48.219,33.57Z" transform="translate(627.832 157.193)"/>
  </g>
</svg>
