<svg xmlns="http://www.w3.org/2000/svg" width="20.576" height="12" viewBox="0 0 20.576 12">
  <defs>
    <style>
      .cls-1 {
        fill: #d6d6d6;
      }
    </style>
  </defs>
  <g id="arrow-right" transform="translate(-4 -8.002)">
    <path id="路径_586" data-name="路径 586" class="cls-1" d="M4,14a.858.858,0,0,0,.857.857H21.65l-3.68,3.68a.857.857,0,1,0,1.212,1.212l5.144-5.144a.848.848,0,0,0,.185-.278.888.888,0,0,0,.065-.324v0h0a.835.835,0,0,0-.067-.328.848.848,0,0,0-.185-.278L19.18,8.252a.857.857,0,0,0-1.212,1.212l3.681,3.68H4.857A.858.858,0,0,0,4,14Z" transform="translate(0 0)"/>
  </g>
</svg>
