<svg xmlns="http://www.w3.org/2000/svg" width="1922" height="80" viewBox="0 0 1922 80">
  <g id="路径_843" data-name="路径 843" transform="translate(246)" fill="#fff" stroke-miterlimit="10" opacity="0.181">
    <path d="M 934.9659423828125 79.5 L 493.0340576171875 79.5 C 486.2892761230469 79.5 479.9783325195312 76.18380737304688 476.1516723632812 70.62952423095703 L 474.8935852050781 68.80333709716797 C 470.8807067871094 62.97785568237305 464.2619018554688 59.5 457.1881103515625 59.5 L -245.5 59.5 L -245.5 0.5 L 1675.5 0.5 L 1675.5 59.5 L 970.8121337890625 59.5 C 963.7383422851562 59.5 957.1192626953125 62.97785568237305 953.1064453125 68.80333709716797 L 951.8483276367188 70.62952423095703 C 948.0216674804688 76.18380737304688 941.710693359375 79.5 934.9659423828125 79.5 Z" stroke="none"/>
    <path d="M -245 1 L -245 59 L 457.1878662109375 59 C 464.4262084960938 59 471.1992797851562 62.55880737304688 475.3054809570312 68.51952362060547 L 476.5635986328125 70.34571838378906 C 480.2966918945312 75.76476287841797 486.4537963867188 79 493.0340576171875 79 L 934.9659423828125 79 C 941.5462036132812 79 947.703369140625 75.76476287841797 951.4364013671875 70.34571838378906 L 952.6945190429688 68.51952362060547 C 956.8007202148438 62.55880737304688 963.5736083984375 59 970.8118896484375 59 L 1675 59 L 1675 1 L -245 1 M -246 0 L 1676 0 L 1676 60 L 970.8118896484375 60 C 963.904052734375 60 957.4368896484375 63.39809417724609 953.51806640625 69.08690643310547 L 952.260009765625 70.91309356689453 C 948.3409423828125 76.60190582275391 941.8740234375 80 934.9659423828125 80 L 493.0340576171875 80 C 486.1259765625 80 479.6590576171875 76.60190582275391 475.739990234375 70.91309356689453 L 474.48193359375 69.08690643310547 C 470.5631103515625 63.39809417724609 464.095947265625 60 457.1878662109375 60 L -246 60 L -246 0 Z" stroke="none" fill="#2ebbe8"/>
  </g>
</svg>
