<svg xmlns="http://www.w3.org/2000/svg" width="78.389" height="78.389" viewBox="0 0 78.389 78.389">
  <defs>
    <style>
      .cls-1 {
        opacity: 0.12;
      }

      .cls-2 {
        fill: none;
      }

      .cls-3 {
        fill: #fff;
      }
    </style>
  </defs>
  <g id="ic-assignment-turned-in-24px" class="cls-1">
    <path id="路径_653" data-name="路径 653" class="cls-2" d="M0,0H78.389V78.389H0Z"/>
    <path id="路径_654" data-name="路径 654" class="cls-3" d="M55.259,7.532H41.606a9.76,9.76,0,0,0-18.421,0H9.532A6.552,6.552,0,0,0,3,14.065V59.792a6.552,6.552,0,0,0,6.532,6.532H55.259a6.552,6.552,0,0,0,6.532-6.532V14.065A6.552,6.552,0,0,0,55.259,7.532Zm-22.863,0A3.266,3.266,0,1,1,29.13,10.8,3.276,3.276,0,0,1,32.4,7.532ZM25.863,53.259,12.8,40.194,17.4,35.589l8.459,8.427L47.388,22.492l4.605,4.638Z" transform="translate(6.799 2.266)"/>
  </g>
</svg>
