<svg id="ic-account-balance-wallet-24px" xmlns="http://www.w3.org/2000/svg" width="52.314" height="52.314" viewBox="0 0 52.314 52.314">
  <defs>
    <style>
      .cls-1 {
        fill: none;
      }

      .cls-2 {
        fill: #fff;
      }
    </style>
  </defs>
  <path id="路径_656" data-name="路径 656" class="cls-1" d="M0,0H52.314V52.314H0Z"/>
  <path id="路径_657" data-name="路径 657" class="cls-2" d="M42.236,35.7v2.18a4.372,4.372,0,0,1-4.36,4.36H7.36A4.358,4.358,0,0,1,3,37.876V7.36A4.358,4.358,0,0,1,7.36,3H37.876a4.372,4.372,0,0,1,4.36,4.36v2.18H22.618a4.358,4.358,0,0,0-4.36,4.36V31.337a4.358,4.358,0,0,0,4.36,4.36Zm-19.618-4.36h21.8V13.9h-21.8Zm8.719-5.449a3.27,3.27,0,1,1,3.27-3.27A3.265,3.265,0,0,1,31.337,25.888Z" transform="translate(3.539 3.539)"/>
</svg>
