<svg xmlns="http://www.w3.org/2000/svg" width="55" height="58.667" viewBox="0 0 55 58.667">
  <defs>
    <style>
      .cls-1 {
        opacity: 0.122;
      }

      .cls-2 {
        fill: #fff;
      }
    </style>
  </defs>
  <g id="icon-book" class="cls-1">
    <path id="路径_590" data-name="路径 590" class="cls-2" d="M9.244,58.667H43.912A3.668,3.668,0,0,0,47.579,55V16.5a1.834,1.834,0,0,0-1.833-1.833H14.667c-.092,0-.271.015-.444.026l-4.979-.026A5.455,5.455,0,0,1,3.667,9.244a5.517,5.517,0,0,1,5.5-5.577H51.333V45.833a1.762,1.762,0,0,0,1.749,1.833A1.905,1.905,0,0,0,55,45.833v-44A1.908,1.908,0,0,0,53.082,0H9.244A9.233,9.233,0,0,0,.015,9.108L0,9.09V49.423A9.245,9.245,0,0,0,9.244,58.667Z"/>
  </g>
</svg>
