<svg xmlns="http://www.w3.org/2000/svg" width="46.152" height="61.537" viewBox="0 0 46.152 61.537">
  <defs>
    <style>
      .cls-1 {
        opacity: 0.12;
      }

      .cls-2 {
        fill: #fff;
      }
    </style>
  </defs>
  <g id="icon-clipboard" class="cls-1" transform="translate(-4)">
    <path id="路径_589" data-name="路径 589" class="cls-2" d="M46.307,3.846H34.769A3.847,3.847,0,0,0,30.922,0H23.23a3.847,3.847,0,0,0-3.846,3.846H7.846A3.847,3.847,0,0,0,4,7.692v50a3.847,3.847,0,0,0,3.846,3.846H46.307a3.847,3.847,0,0,0,3.846-3.846v-50A3.847,3.847,0,0,0,46.307,3.846Zm0,50H7.846V7.692h7.692a3.847,3.847,0,0,0,3.846,3.846H34.769a3.847,3.847,0,0,0,3.846-3.846h7.692ZM11.692,21.153a1.924,1.924,0,0,0,1.923,1.923H40.538a1.923,1.923,0,0,0,0-3.846H13.615A1.924,1.924,0,0,0,11.692,21.153Zm28.846,9.615H13.615a1.923,1.923,0,0,0,0,3.846H40.538a1.923,1.923,0,0,0,0-3.846Zm0,11.538H13.615a1.923,1.923,0,0,0,0,3.846H40.538a1.923,1.923,0,0,0,0-3.846Z"/>
  </g>
</svg>
