<svg xmlns="http://www.w3.org/2000/svg" width="71.406" height="53.556" viewBox="0 0 71.406 53.556">
  <defs>
    <style>
      .cls-1 {
        opacity: 0.12;
      }

      .cls-2 {
        fill: #fff;
      }
    </style>
  </defs>
  <g id="icon-creditcard" class="cls-1" transform="translate(0 -4)">
    <path id="路径_591" data-name="路径 591" class="cls-2" d="M66.944,4H4.463A4.465,4.465,0,0,0,0,8.463V53.092a4.465,4.465,0,0,0,4.463,4.463H66.944a4.465,4.465,0,0,0,4.463-4.463V8.463A4.465,4.465,0,0,0,66.944,4Zm0,49.092H4.463V26.315H66.944ZM4.463,17.576V8.463H66.944v9.113Zm6.694,31.053H33.472a2.231,2.231,0,1,0,0-4.463H11.157a2.231,2.231,0,1,0,0,4.463ZM40.166,46.4A2.231,2.231,0,1,0,42.4,44.166,2.231,2.231,0,0,0,40.166,46.4Zm8.926,0a2.231,2.231,0,1,0,2.231-2.231A2.231,2.231,0,0,0,49.092,46.4Zm8.926,0a2.231,2.231,0,1,0,2.231-2.231A2.231,2.231,0,0,0,58.018,46.4Z" transform="translate(0 0)"/>
  </g>
</svg>
