<svg xmlns="http://www.w3.org/2000/svg" width="267.268" height="32.675" viewBox="0 0 267.268 32.675">
  <defs>
    <style>
      .cls-1, .cls-2, .cls-3, .cls-4, .cls-5, .cls-6, .cls-7 {
        fill: #fff;
      }

      .cls-1 {
        opacity: 0.6;
      }

      .cls-2 {
        opacity: 0.4;
      }

      .cls-3 {
        opacity: 0.3;
      }

      .cls-4 {
        opacity: 0.2;
      }

      .cls-5 {
        opacity: 0.1;
      }

      .cls-6 {
        opacity: 0.8;
      }
    </style>
  </defs>
  <g id="组_437" data-name="组 437" transform="translate(-105 -52)">
    <g id="组_366" data-name="组 366" transform="translate(105 52)">
      <path id="路径_411" data-name="路径 411" class="cls-1" d="M651.208,104.379V101.3h-5.53a3.08,3.08,0,0,0,0,6.16h8.61A3.08,3.08,0,0,1,651.208,104.379Z" transform="translate(-642.598 -91.254)"/>
      <path id="路径_412" data-name="路径 412" class="cls-1" d="M677.081,107.459h7.041a3.08,3.08,0,0,0,0-6.16h-3.961v3.08A3.081,3.081,0,0,1,677.081,107.459Z" transform="translate(-665.391 -91.254)"/>
      <path id="路径_413" data-name="路径 413" class="cls-2" d="M674.157,88.561V82.028a3.081,3.081,0,0,1-3.08,3.08H668v3.453Z" transform="translate(-659.387 -78.516)"/>
      <path id="路径_414" data-name="路径 414" class="cls-3" d="M668,104.379a3.08,3.08,0,0,0,6.16,0V101.3H668Z" transform="translate(-659.387 -91.254)"/>
      <path id="路径_415" data-name="路径 415" class="cls-4" d="M746.04,138.772a10.342,10.342,0,0,1-14.3,0,3.048,3.048,0,0,1-4.31,4.31,16.206,16.206,0,0,0,22.918,0,3.048,3.048,0,0,0-4.31-4.31Z" transform="translate(-698.673 -115.433)"/>
      <path id="路径_416" data-name="路径 416" class="cls-1" d="M731.742,76.4a3.048,3.048,0,0,1,0,4.31,10.121,10.121,0,0,1,14.3,0,3.048,3.048,0,0,0,4.31-4.31,16.238,16.238,0,0,0-22.918,0A3.048,3.048,0,0,1,731.742,76.4Z" transform="translate(-698.673 -71.667)"/>
      <path id="路径_417" data-name="路径 417" class="cls-4" d="M654.288,72.943h-8.61a3.08,3.08,0,0,0,0,6.16h5.53v-3.08A3.081,3.081,0,0,1,654.288,72.943Z" transform="translate(-642.598 -72.51)"/>
      <path id="路径_418" data-name="路径 418" class="cls-5" d="M674.157,76.023a3.08,3.08,0,0,0-6.16,0V79.1h3.079A3.081,3.081,0,0,0,674.157,76.023Z" transform="translate(-659.387 -72.51)"/>
      <path id="路径_419" data-name="路径 419" class="cls-2" d="M652.424,127.993a2.909,2.909,0,0,1,.3-.249,3.011,3.011,0,0,0-.3.247l-8.38,8.382a2.951,2.951,0,0,0,4.173,4.173l6.294-6.3-2.088-2.086A2.949,2.949,0,0,1,652.424,127.993Z" transform="translate(-642.983 -108.734)"/>
      <path id="路径_420" data-name="路径 420" class="cls-4" d="M678.693,128.472a2.952,2.952,0,0,1,0,4.173l-2.086,2.086,6.019,6.016a2.951,2.951,0,0,0,4.173-4.173Z" transform="translate(-665.078 -109.215)"/>
      <path id="路径_421" data-name="路径 421" class="cls-5" d="M672.937,126.79a2.927,2.927,0,0,0-3.871-.247,2.905,2.905,0,0,0-.3.249,2.949,2.949,0,0,0,0,4.171l2.088,2.086,2.086-2.086A2.951,2.951,0,0,0,672.937,126.79Z" transform="translate(-659.323 -107.533)"/>
      <path id="路径_422" data-name="路径 422" class="cls-2" d="M718.193,104.234a3.048,3.048,0,0,1,4.31,0,10.119,10.119,0,0,1,0-14.3,3.047,3.047,0,0,1-4.31-4.31,16.223,16.223,0,0,0,0,22.916A3.047,3.047,0,0,1,718.193,104.234Z" transform="translate(-689.435 -80.895)"/>
      <path id="路径_423" data-name="路径 423" class="cls-5" d="M730,143.082a3.05,3.05,0,1,0-2.155.891A3.048,3.048,0,0,0,730,143.082Z" transform="translate(-696.933 -115.433)"/>
      <path id="路径_424" data-name="路径 424" class="cls-3" d="M725.691,88.2a3.047,3.047,0,1,0,0-4.307A3.043,3.043,0,0,0,725.691,88.2Z" transform="translate(-696.933 -79.155)"/>
    </g>
    <g id="组_433" data-name="组 433" transform="translate(105 52)">
      <path id="路径_411-2" data-name="路径 411" class="cls-6" d="M651.208,104.379V101.3h-5.53a3.08,3.08,0,0,0,0,6.16h8.61A3.08,3.08,0,0,1,651.208,104.379Z" transform="translate(-642.598 -91.254)"/>
      <path id="路径_412-2" data-name="路径 412" class="cls-6" d="M677.081,107.459h7.041a3.08,3.08,0,0,0,0-6.16h-3.961v3.08A3.081,3.081,0,0,1,677.081,107.459Z" transform="translate(-665.391 -91.254)"/>
      <path id="路径_413-2" data-name="路径 413" class="cls-1" d="M674.157,88.561V82.028a3.081,3.081,0,0,1-3.08,3.08H668v3.453Z" transform="translate(-659.387 -78.516)"/>
      <path id="路径_414-2" data-name="路径 414" class="cls-2" d="M668,104.379a3.08,3.08,0,0,0,6.16,0V101.3H668Z" transform="translate(-659.387 -91.254)"/>
      <path id="路径_415-2" data-name="路径 415" class="cls-2" d="M746.04,138.772a10.342,10.342,0,0,1-14.3,0,3.048,3.048,0,0,1-4.31,4.31,16.206,16.206,0,0,0,22.918,0,3.048,3.048,0,0,0-4.31-4.31Z" transform="translate(-698.673 -115.433)"/>
      <path id="路径_416-2" data-name="路径 416" class="cls-6" d="M731.742,76.4a3.048,3.048,0,0,1,0,4.31,10.121,10.121,0,0,1,14.3,0,3.048,3.048,0,0,0,4.31-4.31,16.238,16.238,0,0,0-22.918,0A3.048,3.048,0,0,1,731.742,76.4Z" transform="translate(-698.673 -71.667)"/>
      <path id="路径_417-2" data-name="路径 417" class="cls-2" d="M654.288,72.943h-8.61a3.08,3.08,0,0,0,0,6.16h5.53v-3.08A3.081,3.081,0,0,1,654.288,72.943Z" transform="translate(-642.598 -72.51)"/>
      <path id="路径_418-2" data-name="路径 418" class="cls-5" d="M674.157,76.023a3.08,3.08,0,0,0-6.16,0V79.1h3.079A3.081,3.081,0,0,0,674.157,76.023Z" transform="translate(-659.387 -72.51)"/>
      <path id="路径_419-2" data-name="路径 419" class="cls-1" d="M652.424,127.993a2.909,2.909,0,0,1,.3-.249,3.011,3.011,0,0,0-.3.247l-8.38,8.382a2.951,2.951,0,0,0,4.173,4.173l6.294-6.3-2.088-2.086A2.949,2.949,0,0,1,652.424,127.993Z" transform="translate(-642.983 -108.734)"/>
      <path id="路径_420-2" data-name="路径 420" class="cls-2" d="M678.693,128.472a2.952,2.952,0,0,1,0,4.173l-2.086,2.086,6.019,6.016a2.951,2.951,0,0,0,4.173-4.173Z" transform="translate(-665.078 -109.215)"/>
      <path id="路径_421-2" data-name="路径 421" class="cls-5" d="M672.937,126.79a2.927,2.927,0,0,0-3.871-.247,2.905,2.905,0,0,0-.3.249,2.949,2.949,0,0,0,0,4.171l2.088,2.086,2.086-2.086A2.951,2.951,0,0,0,672.937,126.79Z" transform="translate(-659.323 -107.533)"/>
      <path id="路径_422-2" data-name="路径 422" class="cls-1" d="M718.193,104.234a3.048,3.048,0,0,1,4.31,0,10.119,10.119,0,0,1,0-14.3,3.047,3.047,0,0,1-4.31-4.31,16.223,16.223,0,0,0,0,22.916A3.047,3.047,0,0,1,718.193,104.234Z" transform="translate(-689.435 -80.895)"/>
      <path id="路径_423-2" data-name="路径 423" class="cls-5" d="M730,143.082a3.05,3.05,0,1,0-2.155.891A3.048,3.048,0,0,0,730,143.082Z" transform="translate(-696.933 -115.433)"/>
      <path id="路径_424-2" data-name="路径 424" class="cls-2" d="M725.691,88.2a3.047,3.047,0,1,0,0-4.307A3.043,3.043,0,0,0,725.691,88.2Z" transform="translate(-696.933 -79.155)"/>
    </g>
    <g id="组_434" data-name="组 434" transform="translate(168.772 54.091)">
      <path id="路径_499" data-name="路径 499" class="cls-7" d="M5.175,1100.92l3.329-4.737H5.175v-2.409h5.008l2.22-3.194H9.831l-.785,1.462H5.175l2.761-5.224h3.9l-.731,1.353H19.44v2.409H16.3l-2.22,3.194h6.334v2.409H17.437l3.275,4.737H16.841l-3.3-4.737H12.375l-3.329,4.737Zm27.041.893v12.722h-4.3v-.623H10.967v.623H6.5v-12.722h4.466v1.6l1.272-1.57H27.912v-.027Zm-21.248,2.761v2.084H27.912v-2.084Zm0,4.493v2.111H27.912v-2.111Zm13.859-21.573v1.651l1.3-1.651h7.417v13.426H29.807v-.406h-4.98v.406H21.118v-13.426Zm0,2.761v7.85h4.98v-7.85Z" transform="translate(-5.175 -1086.818)"/>
      <path id="路径_500" data-name="路径 500" class="cls-7" d="M328.668,1114.535H324.2l1.408-6.74h4.466Zm-3.465-26.824h3.79v-.893h5.089v.893h3.789v2.165h-3.789v.731h3.167v2.192h-3.167v.7h4.033v2.219h-4.033v1h-5.089v-1H324.96V1093.5h4.033v-.7h-3.221v-2.192h3.221v-.731H325.2Zm.487,16.592h20.3v-.866H327.207v-2.49h18.785v-.839h-20.3v-2.49h25.363v9.176H325.691Zm5.657,3.492h4.466l-1,4.71H346.7v2.03H329.94Zm10.042,3.546-.3-1.516h-4.466l.406-2.03h8.093l.731,3.546Zm-2.49-23.63h3.789v-.893h5.062v.893h3.844v2.165h-3.844v.731h3.221v2.192h-3.221v.7h4.06v2.219h-4.06v1h-5.062v-1h-4.06V1093.5h4.06v-.7H339.5v-2.192h3.194v-.731H338.9Zm9.2,26.824-1.435-6.74h4.466l1.435,6.74Z" transform="translate(-289.155 -1086.818)"/>
      <path id="路径_501" data-name="路径 501" class="cls-7" d="M650.564,1114.535a2.327,2.327,0,0,0-.826-1.516,2.942,2.942,0,0,0-1.746-.7v-1h2.95v-6.767h-3.221v3.708l-.514,6.279h-3.979l.487-6.279v-21.438h4.006v1.164l1.164-1.164h6.063v27.717Zm.379-20.057v-4.954h-3.221v4.954Zm-3.221,7.389h3.221v-4.656h-3.221Zm8.31-15.05H671.6V1097h-4.277a2.236,2.236,0,0,0-.785-1.516,2.85,2.85,0,0,0-1.705-.7v-1H667.4V1089.5h-7.146v8.364H671.6v5.387l-3.14,5.63,3.14,5.657h-4.574l-.866-1.57-.866,1.57h-4.575l3.14-5.657-3.059-5.44h4.629l.731,1.3,1.245-2.246v-1.922h-7.146v13.967h-4.223Z" transform="translate(-573.134 -1086.818)"/>
      <path id="路径_502" data-name="路径 502" class="cls-7" d="M962.256,1097.483l3.167-10.664H970l-.487,1.569h20.247v6.74l-8.147,2.761,8.959,3.113v3.492l-.812-.3v10.34h-9.284a2.607,2.607,0,0,0-.947-1.665,3.431,3.431,0,0,0-1.949-.8v-1.137h7.9v-4.466H973.462l-4.493,8.066h-4.737l4.493-8.066h-5.468v-2.328l-1,.352V1101l9.2-3.14-4.331-1.489-.3,1.11Zm2.138,6.28h5.82l1.056-1.868h4.737l-1.028,1.868h13.588l-12.045-4.141Zm12.126-7.633,9.393-3.194v-1.868H968.725l-.65,2.138Z" transform="translate(-857.114 -1086.818)"/>
      <path id="路径_503" data-name="路径 503" class="cls-7" d="M1280.3,1094.024h11.666v-6.713h4.872v6.713h11.8v3.465h-11.748l11.206,17.431H1302.6l-8.255-12.911-8.147,12.911H1280.7l11.26-17.431H1280.3Z" transform="translate(-1140.217 -1087.257)"/>
      <path id="路径_504" data-name="路径 504" class="cls-7" d="M1628.349,1087.064v3.221h-23.224v17.621l-.812,6.848h-4.25l.839-6.848v-20.815h.325v-.027h3.9v1.462l1.11-1.462Zm-21.817,6.74h21.194v2.95h-8.364v18h-5.251a2.2,2.2,0,0,0-.772-1.394,2.725,2.725,0,0,0-1.61-.663v-.92h3v-15.023h-8.2Z" transform="translate(-1424.853 -1087.037)"/>
    </g>
  </g>
</svg>
