<svg xmlns="http://www.w3.org/2000/svg" width="17.908" height="17.908" viewBox="0 0 17.908 17.908">
  <defs>
    <style>
      .cls-1 {
        opacity: 0.3;
      }

      .cls-2 {
        fill: #fff;
      }
    </style>
  </defs>
  <g id="icon-grid-2x2" class="cls-1" transform="translate(-4 -4)">
    <path id="路径_840" data-name="路径 840" class="cls-2" d="M5.492,11.462H9.969a1.493,1.493,0,0,0,1.492-1.492V5.492A1.493,1.493,0,0,0,9.969,4H5.492A1.493,1.493,0,0,0,4,5.492V9.969A1.493,1.493,0,0,0,5.492,11.462Zm10.446,0h4.477a1.493,1.493,0,0,0,1.492-1.492V5.492A1.493,1.493,0,0,0,20.415,4H15.938a1.493,1.493,0,0,0-1.492,1.492V9.969A1.493,1.493,0,0,0,15.938,11.462ZM4,20.415a1.493,1.493,0,0,0,1.492,1.492H9.969a1.493,1.493,0,0,0,1.492-1.492V15.938a1.493,1.493,0,0,0-1.492-1.492H5.492A1.493,1.493,0,0,0,4,15.938Zm10.446,0a1.493,1.493,0,0,0,1.492,1.492h4.477a1.493,1.493,0,0,0,1.492-1.492V15.938a1.493,1.493,0,0,0-1.492-1.492H15.938a1.493,1.493,0,0,0-1.492,1.492Z"/>
  </g>
</svg>
