<svg id="组_1256" data-name="组 1256" xmlns="http://www.w3.org/2000/svg" width="23.393" height="31.978" viewBox="0 0 23.393 31.978">
  <defs>
    <style>
      .cls-1 {
        fill: #ffffff;
      }
    </style>
  </defs>
  <g id="组_391" data-name="组 391" transform="translate(0 0)">
    <path id="路径_425" data-name="路径 425" class="cls-1" d="M38.613,48.4,37.8,45.364a5.183,5.183,0,0,0-4.384-3.878l-1.888-.236-.54-1.619a8.068,8.068,0,0,0,3.136-4.687,2.863,2.863,0,0,0,1.416-2.8,3.343,3.343,0,0,0-.674-2.529,1.853,1.853,0,0,0-.3-.236,8.28,8.28,0,0,0-1.518-3.946,27.526,27.526,0,0,1-6,.674,26.489,26.489,0,0,1-6.1-.708,8.076,8.076,0,0,0-1.518,3.946.812.812,0,0,0-.27.2,3.475,3.475,0,0,0-.708,2.563,2.9,2.9,0,0,0,1.416,2.8A8.068,8.068,0,0,0,23,39.6l-.54,1.619-1.956.236A5.228,5.228,0,0,0,16.12,45.33l-.809,3.035a.924.924,0,0,0,.2.911,1.023,1.023,0,0,0,.843.4H37.534a1.023,1.023,0,0,0,.843-.4A.8.8,0,0,0,38.613,48.4ZM23.505,41.857l.573-1.652a6.718,6.718,0,0,0,2.934.708,7.037,7.037,0,0,0,2.9-.674l.54,1.619A5.869,5.869,0,0,1,23.505,41.857Zm3.473-2.192a6.216,6.216,0,0,1-5.969-5.328.573.573,0,0,0-.472-.472c-.1-.034-.843-.27-.843-1.754a4.816,4.816,0,0,1,.169-1.416h.2c0,.2.135,1.012.3,1.012h.877a.343.343,0,0,0,.3-.371s.169-2.259.371-3.743a.5.5,0,0,1,.607-.472,21.851,21.851,0,0,0,4.418.438,19.876,19.876,0,0,0,4.418-.438.5.5,0,0,1,.607.472c.2,1.484.371,3.743.371,3.743a.347.347,0,0,0,.337.371h.877c.169,0,.3-.809.3-1.012h.2a3.6,3.6,0,0,1,.169,1.416c0,1.45-.776,1.72-.843,1.72a.612.612,0,0,0-.472.506A6.186,6.186,0,0,1,26.979,39.665Z" transform="translate(-15.265 -17.703)"/>
    <ellipse id="椭圆_39" data-name="椭圆 39" class="cls-1" cx="1.079" cy="1.079" rx="1.079" ry="1.079" transform="translate(8.375 12.823)"/>
    <ellipse id="椭圆_40" data-name="椭圆 40" class="cls-1" cx="1.079" cy="1.079" rx="1.079" ry="1.079" transform="translate(12.894 12.823)"/>
    <path id="路径_426" data-name="路径 426" class="cls-1" d="M46.936,54.893a2.631,2.631,0,0,1-3.1,0,.469.469,0,0,0-.641-.034.438.438,0,0,0-.034.641,3.263,3.263,0,0,0,4.451,0,.469.469,0,0,0-.034-.641A.438.438,0,0,0,46.936,54.893Z" transform="translate(-33.671 -37.146)"/>
    <path id="路径_427" data-name="路径 427" class="cls-1" d="M20.646,6.394l3.136.944V8.89a.689.689,0,0,0,.54.674,26.724,26.724,0,0,0,12.005,0,.719.719,0,0,0,.54-.674V7.3l1.888-.573V8.687a.468.468,0,0,0-.236.4v.472a.436.436,0,0,0,.3.4l-.472,1.045a.211.211,0,0,0,.169.3l.472.067h.27l.472-.067a.22.22,0,0,0,.169-.3L39.43,9.935a.472.472,0,0,0,.3-.4V9.058a.514.514,0,0,0-.236-.4V6.5l.4-.1a.6.6,0,0,0,0-1.147l-8.363-2.5a4.726,4.726,0,0,0-2.563,0l-8.363,2.5A.6.6,0,0,0,20.646,6.394Z" transform="translate(-18.544 -2.575)"/>
  </g>
</svg>
